<?xml version="1.0" encoding="utf-8"?>
<!-- Generator: Adobe Illustrator 26.0.3, SVG Export Plug-In . SVG Version: 6.00 Build 0)  -->
<svg version="1.0" id="katman_1" xmlns="http://www.w3.org/2000/svg" xmlns:xlink="http://www.w3.org/1999/xlink" x="0px" y="0px"
	 viewBox="0 0 800 600" style="enable-background:new 0 0 800 600;" xml:space="preserve">
<style type="text/css">
	.st0{fill:#1B83C6;}
</style>
<polygon class="st0" points="662.2,178 669.4,135.9 635.5,135.9 628.3,178 585.7,178 580,211.8 622.1,211.8 615,254.5 648.8,254.5 
	656,211.8 698.6,211.8 704.3,178 "/>
<path class="st0" d="M530.8,307.3c-3.1,0-5.6,2.6-5.6,5.6c0,3.1,2.6,5.6,5.6,5.6s5.6-2.6,5.6-5.6
	C535.9,309.9,533.3,307.3,530.8,307.3"/>
<path class="st0" d="M177.5,463.9c0-3.6-2.6-6.2-6.2-6.2s-6.2,2.6-6.2,6.2c0,3.6,2.6,6.2,6.2,6.2C174.4,469.6,177,467,177.5,463.9"
	/>
<path class="st0" d="M379.3,378.7c12.3-15.4,23.6-29.3,32.3-39c19.5-21.6,52.4-24.1,76.5-8.2c1,0.5,2.1,0.5,2.6-0.5
	c0.5-0.5,0.5-1.5,0-2.1c-1-1-1.5-3.1-1-5.1c0.5-1.5,1.5-3.1,3.1-3.6c1-0.5,2.1-0.5,2.6-0.5c1,0,2.1-0.5,3.1-1.5
	c0.5-1,0.5-2.6-0.5-3.6c-1-1.5-2.1-3.1-1-5.1c0.5-1.5,2.1-3.1,3.6-3.6c1-0.5,2.1-0.5,3.1,0c1,0.5,2.6,0,3.1-1c0.5-1,0.5-2.1,0-3.1
	c-1-1-1.5-3.1-1-5.1s2.1-3.1,3.6-4.1c1-0.5,2.1-0.5,3.1,0c1,0,1.5,0,2.1-1c0.5-1,0.5-2.1-0.5-2.6c-43.1-26.7-101.1-23.1-136.6,15.9
	c-8.2,8.7-18,21.1-28.8,34.4c6.7,8.2,13.3,16.9,20,25.2C372.1,369.5,375.7,374.1,379.3,378.7 M462,318.6c-3.1,0-5.6-2.6-5.6-5.6
	c0-3.1,2.6-5.6,5.6-5.6s5.6,2.6,5.6,5.6C467.6,316.1,465,318.6,462,318.6 M481,323.3c-3.1,0-5.6-2.6-5.6-5.6c0-3.1,2.6-5.6,5.6-5.6
	c3.1,0,5.6,2.6,5.6,5.6C487.1,320.7,484.6,323.3,481,323.3 M496.9,283.2c3.1,0,5.6,2.6,5.6,5.6c0,3.1-2.6,5.6-5.6,5.6
	s-5.6-2.6-5.6-5.6C491.2,286.3,493.8,283.2,496.9,283.2 M494.8,303.2c0,3.1-2.6,5.6-5.6,5.6c-3.1,0-5.6-2.6-5.6-5.6
	c0-3.1,2.6-5.6,5.6-5.6C492.3,297.1,494.8,299.6,494.8,303.2 M479.4,278.1c3.1,0,5.6,2.6,5.6,5.6s-2.6,5.6-5.6,5.6s-5.6-2.6-5.6-5.6
	S476.3,278.1,479.4,278.1 M476.3,298.6c0,3.1-2.6,5.6-5.6,5.6c-3.1,0-5.6-2.6-5.6-5.6s2.6-5.6,5.6-5.6
	C474.3,293,476.3,295.5,476.3,298.6 M463,275.5c3.1,0,5.1,2.6,5.1,5.1c0,3.1-2.6,5.1-5.1,5.1c-3.1,0-5.1-2.6-5.1-5.1
	C457.3,278.1,459.9,275.5,463,275.5 M452.7,291.9c3.1,0,5.1,2.6,5.1,5.1c0,3.1-2.6,5.1-5.1,5.1c-3.1,0-5.1-2.6-5.1-5.1
	C447.6,294.5,449.6,291.9,452.7,291.9 M445.5,276c2.6,0,5.1,2.1,5.1,5.1c0,2.6-2.1,5.1-5.1,5.1c-2.6,0-5.1-2.1-5.1-5.1
	S442.5,276,445.5,276"/>
<path class="st0" d="M516.4,327.9c0,3.1,2.6,5.1,5.1,5.1c3.1,0,5.1-2.6,5.1-5.1c0-3.1-2.6-5.1-5.1-5.1
	C518.4,322.7,516.4,324.8,516.4,327.9"/>
<path class="st0" d="M193.4,447c3.1,0,6.2-2.6,6.2-5.6s-2.6-6.2-5.6-6.2c-3.1,0-6.2,2.6-6.2,5.6C187.8,443.9,190.4,446.5,193.4,447"
	/>
<path class="st0" d="M310,387.4c-12.3,15.4-23.6,29.3-32.9,39c-18,19.5-46.2,23.1-69.3,12.3c-1-0.5-1.5,0-2.6,0.5l-0.5,0.5
	c-0.5,0.5-0.5,1.5,0,2.6c0.5,1.5,1,3.1,0.5,4.6c-0.5,2.1-2.1,3.1-4.1,4.1c-1.5,0.5-3.1,0-4.6-0.5c-1-0.5-2.1-0.5-2.6,0l-0.5,0.5
	c-0.5,0.5-1,1.5-0.5,2.6c0.5,1.5,1,3.1,0.5,4.6c-0.5,2.1-2.1,3.6-4.1,4.1c-1.5,0.5-3.6,0.5-4.6-0.5c-1-0.5-1.5-0.5-2.6,0.5l-0.5,0.5
	c-0.5,0.5-0.5,1.5-0.5,2.6c0.5,1,1,2.6,0.5,4.1c0,1.5-1.5,3.6-3.1,4.1c-2.6,1.5-4.1,1-6.2-0.5c-0.5-0.5-2.1-0.5-2.6,0
	c-0.5,1-0.5,2.1,0.5,2.6c43.6,29.3,104.2,25.2,140.2-14.4c8.2-9.2,18.5-21.1,29.3-34.9c-5.1-6.7-10.8-13.3-16.4-20.5
	C319.7,400.3,315.1,393.6,310,387.4 M227.8,449.6c3.1,0,5.1,2.6,5.1,5.1c0,3.1-2.6,5.1-5.1,5.1c-3.1,0-5.1-2.6-5.1-5.1
	C222.7,452.1,225.3,449.6,227.8,449.6 M213.5,446.5c3.1,0,5.6,2.6,5.6,5.6c0,3.1-2.6,5.6-5.6,5.6s-5.6-2.6-5.6-5.6
	S210.4,446.5,213.5,446.5 M192.9,482.9c-3.1,0-5.6-2.6-5.6-5.6c0-3.1,2.6-5.6,5.6-5.6c3.1,0,5.6,2.6,5.6,5.6
	C198.6,480.4,196,482.9,192.9,482.9 M196.5,464.4c0-3.1,2.6-5.6,5.6-5.6c3.1,0,5.6,2.6,5.6,5.6c0,3.1-2.6,5.6-5.6,5.6
	C199.1,470.6,196.5,468,196.5,464.4 M209.4,488.1c-3.1,0-5.6-2.6-5.6-5.6c0-3.1,2.6-5.6,5.6-5.6s5.6,2.6,5.6,5.6
	C214.5,485.5,211.9,488.1,209.4,488.1 M213,469.1c0-3.1,2.6-5.6,5.6-5.6c3.1,0,5.6,2.6,5.6,5.6c0,3.1-2.6,5.6-5.6,5.6
	C215.5,474.7,213,472.1,213,469.1 M225.8,491.1c-3.1,0-5.1-2.6-5.1-5.1s2.6-5.1,5.1-5.1c3.1,0,5.1,2.6,5.1,5.1
	S228.4,491.1,225.8,491.1 M234.5,476.3c-3.1,0-5.1-2.6-5.1-5.1c0-3.1,2.6-5.1,5.1-5.1c3.1,0,5.1,2.6,5.1,5.1
	S237.1,476.3,234.5,476.3 M243.8,491.1c-2.6,0-5.1-2.1-5.1-5.1c0-2.6,2.1-5.1,5.1-5.1c2.6,0,5.1,2.1,5.1,5.1
	C248.9,488.6,246.3,491.1,243.8,491.1"/>
<path class="st0" d="M550.8,346.9c2.6,0,5.1-2.1,5.1-5.1c0-3.1-2.1-5.1-5.1-5.1c-2.6,0-5.1,2.1-5.1,5.1
	C545.6,344.8,548.2,346.9,550.8,346.9"/>
<path class="st0" d="M170.3,403.3c-2.6,0-4.6,2.1-4.6,4.6c0,2.6,2.1,4.6,4.6,4.6c2.6,0,4.6-2.1,4.6-4.6
	C175,405.4,172.9,403.3,170.3,403.3"/>
<path class="st0" d="M179.1,421.3c-3.1,0-5.1,2.1-5.1,5.1c0,3.1,2.1,5.1,5.1,5.1c3.1,0,5.1-2.1,5.1-5.1
	C184.2,423.4,181.6,421.3,179.1,421.3"/>
<path class="st0" d="M541.5,321.2c-3.1,0-5.1,2.6-5.1,5.1c0,3.1,2.6,5.1,5.1,5.1c3.1,0,5.1-2.6,5.1-5.1S544.6,321.2,541.5,321.2"/>
<path class="st0" d="M516.9,296c-3.1,0-5.6,2.6-5.6,5.6c0,3.1,2.6,5.6,5.6,5.6c3.1,0,5.6-2.6,5.6-5.6C523.1,298.6,520,296,516.9,296
	"/>
<path class="st0" d="M530.8,337.6c-2.6,0-4.6,2.1-4.6,4.6c0,2.6,2.1,4.6,4.6,4.6s4.6-2.1,4.6-4.6
	C535.4,339.7,533.3,337.6,530.8,337.6"/>
<path class="st0" d="M159,430c3.1,0,5.1-2.1,5.1-5.1c0-3.1-2.1-5.1-5.1-5.1c-3.1,0-5.1,2.1-5.1,5.1C153.9,427.5,156.5,430,159,430"
	/>
<path class="st0" d="M151.9,403.3c-2.6,0-5.1,2.1-5.1,4.6c0,2.6,2.1,5.1,4.6,5.1c2.6,0,5.1-2.1,5.1-4.6
	C157,405.4,154.9,403.3,151.9,403.3"/>
<path class="st0" d="M158,446c-3.1,0-6.2,2.6-6.2,5.6c0,3.1,2.6,6.2,5.6,6.2s6.2-2.6,6.2-5.6C163.7,448.5,161.1,446,158,446"/>
<path class="st0" d="M182.7,446.5c-3.1,0-5.6,2.6-6.2,5.6c0,3.1,2.6,6.2,5.6,6.2s6.2-2.6,6.2-5.6C188.8,449,186.3,446.5,182.7,446.5
	"/>
<path class="st0" d="M168.8,444.9c3.1,0,5.6-2.6,5.6-5.6c0-3.1-2.6-5.6-5.6-5.6s-5.6,2.6-5.6,5.6
	C163.7,441.9,165.7,444.4,168.8,444.9"/>
<path class="st0" d="M144.7,424.9c0-3.1-2.1-5.1-5.1-5.1s-5.1,2.1-5.1,5.1c0,3.1,2.1,5.1,5.1,5.1C142.1,430,144.7,427.5,144.7,424.9
	"/>
<path class="st0" d="M147.2,433.1c-3.1,0-5.6,2.6-5.6,5.6c0,3.1,2.6,5.6,5.6,5.6c3.1,0,5.6-2.6,5.6-5.6
	C152.9,435.7,150.3,433.6,147.2,433.1"/>
<path class="st0" d="M500,323.8c-3.1,0-5.1,2.6-5.1,5.1c0,3.1,2.6,5.1,5.1,5.1c3.1,0,5.1-2.6,5.1-5.1
	C505.1,326.3,503,323.8,500,323.8"/>
<path class="st0" d="M510.7,346.9c2.6,0,4.6-2.1,4.6-4.6s-2.1-4.6-4.6-4.6s-4.6,2.1-4.6,4.6C506.1,344.8,508.2,346.9,510.7,346.9"/>
<path class="st0" d="M139,408.5c0-2.6-2.1-5.1-4.6-5.1c-2.6,0-5.1,2.1-5.1,4.6c0,2.6,2.1,5.1,4.6,5.1
	C136.5,413.1,138.5,411,139,408.5"/>
<path class="st0" d="M513.8,315.6c0-3.1-2.6-5.6-5.6-5.6c-3.1,0-5.6,2.6-5.6,5.6s2.6,5.6,5.6,5.6
	C511.2,321.2,513.8,318.6,513.8,315.6"/>
<path class="st0" d="M511.8,358.7H464L451.2,408h60.6c-3.1,6.7-7.2,13.3-12.8,19c-24.1,24.1-64.7,25.2-87.3,0
	c-26.2-29.3-73.4-92.9-99.6-121.7c-29.8-32.9-76.5-40.6-116-26.2l11.3-43.6h98.6l12.8-49.3h-98.1h-49.3l-12.8,49.3l-30.8,116
	c-0.5,2.6-1.5,5.1-2.1,7.2H175h2.6c3.1-6.7,7.2-13.3,12.8-19c24.1-24.1,64.2-25.2,87.3,0c26.2,29.3,73.4,92.4,99.6,121.7
	c40.6,45.7,113.5,43.1,156.6,0c27.7-27.7,38-67.3,29.8-103.2h-51.9V358.7z"/>
<polygon class="st0" points="574.9,191.8 551.8,191.8 546.7,220.6 517.9,220.6 513.8,243.7 542.6,243.7 537.9,272.4 561,272.4 
	565.7,243.7 594.9,243.7 598.5,220.6 569.8,220.6 "/>
</svg>
