<?xml version="1.0" encoding="UTF-8"?>
<svg version="1.1" xmlns="http://www.w3.org/2000/svg" width="2434" height="812">
<path d="M0 0 C-1.54095196 14.32915797 -3.66810226 28.55609112 -5.84375 42.80078125 C-6.21730216 45.25554033 -6.59079559 47.71030836 -6.9642334 50.16508484 C-7.74209001 55.27273797 -8.52241772 60.38000678 -9.30419922 65.48706055 C-10.30611266 72.03518907 -11.29900719 78.58465183 -12.28978729 85.13447285 C-13.05556916 90.18710763 -13.82743601 95.23879889 -14.60102844 100.29024315 C-14.97003587 102.70646879 -15.33682048 105.12303498 -15.70133972 107.53994179 C-16.20921359 110.90304952 -16.72558856 114.26474529 -17.24414062 117.6262207 C-17.39277054 118.62306381 -17.54140045 119.61990692 -17.6945343 120.6469574 C-17.83743393 121.56185944 -17.98033356 122.47676147 -18.12756348 123.41938782 C-18.2484861 124.2121729 -18.36940872 125.00495798 -18.49399567 125.82176685 C-19 128 -19 128 -21 132 C-29.58 123.42 -38.16 114.84 -47 106 C-51.41083252 109.78071359 -55.52756955 113.40479707 -59.59784222 117.48876095 C-60.11798634 118.00924921 -60.63813047 118.52973747 -61.17403653 119.06599811 C-62.9037254 120.79803912 -64.62978568 122.53364992 -66.35588074 124.26927185 C-67.61278721 125.52932513 -68.86992405 126.78914863 -70.12727052 128.04876286 C-72.8539119 130.78130171 -75.57893719 133.51543861 -78.30273056 136.25081635 C-82.73473651 140.70165244 -87.17024291 145.14898974 -91.60618591 149.59590149 C-97.21078814 155.21488244 -102.81444192 160.83480647 -108.41698728 166.45583827 C-119.41692561 177.49204941 -130.42306365 188.52205886 -141.43147278 199.54981995 C-143.16471486 201.28617239 -144.89795328 203.02252849 -146.63118809 204.75888819 C-149.25753356 207.3899592 -151.88388272 210.02102652 -154.51024663 212.65207912 C-164.40459363 222.5641393 -174.29825237 232.47688618 -184.19116211 242.39038086 C-185.09530125 243.29639705 -185.99944039 244.20241324 -186.93097768 245.13588447 C-201.60604095 259.84188598 -216.27372635 274.55522746 -230.93918141 289.27080988 C-245.99107542 304.37371639 -261.05244893 319.46712324 -276.12232 334.55209213 C-285.42160336 343.86136275 -294.71308424 353.17828705 -303.9948226 362.50505144 C-310.3475142 368.88721293 -316.70921123 375.26030271 -323.0782034 381.62619709 C-326.75697919 385.30374955 -330.43146822 388.9853446 -334.09526062 392.67782974 C-337.44432896 396.05295946 -340.80455092 399.41653694 -344.17430416 402.77101136 C-345.39591116 403.99119017 -346.61323208 405.21567711 -347.82595196 406.44468909 C-349.46598761 408.10554273 -351.12044656 409.75048774 -352.77968121 411.39212704 C-353.69784766 412.31273416 -354.61601411 413.23334129 -355.56200379 414.18184561 C-358 416 -358 416 -360.17837769 415.91281283 C-362.9668841 414.5154955 -364.8381431 412.52951963 -367.03668213 410.32408142 C-367.53012611 409.83320071 -368.02357009 409.34232 -368.53196692 408.83656412 C-370.18510153 407.18837453 -371.82727931 405.5296845 -373.46972656 403.87084961 C-374.65192318 402.68780688 -375.83478059 401.50542415 -377.01824951 400.32365417 C-380.23127433 397.11149134 -383.43495504 393.89015185 -386.63706684 390.66711497 C-389.98427424 387.30117467 -393.3399591 383.94370814 -396.69476318 380.58534241 C-403.0471994 374.22357578 -409.39194853 367.85419932 -415.73398757 361.48206955 C-422.95414716 354.228397 -430.18281044 346.98322446 -437.41220903 339.73876178 C-452.2843036 324.83529563 -467.14565921 309.92116009 -482 295 C-487.92618254 299.90599353 -493.32469503 305.22060803 -498.72729492 310.69311523 C-499.6870821 311.66138574 -500.64713707 312.62939087 -501.60743713 313.59715271 C-503.66190418 315.66823698 -505.71496175 317.74070464 -507.76704979 319.81414604 C-511.01126109 323.0911387 -514.26156964 326.36203747 -517.51325989 329.63160706 C-518.62890538 330.75351229 -519.74455079 331.87541762 -520.86019611 332.99732304 C-521.41846517 333.55870822 -521.97673423 334.12009341 -522.55192053 334.69849026 C-530.11334418 342.30287122 -537.67008859 349.91181521 -545.21264648 357.53491211 C-550.31352747 362.69016481 -555.42315956 367.83656314 -560.54310876 372.9728809 C-563.24946068 375.68862094 -565.95100324 378.40879653 -568.64183617 381.13992119 C-571.16671231 383.70250576 -573.70285544 386.25335809 -576.24828148 388.7955265 C-577.62760488 390.17925636 -578.99441258 391.57542644 -580.36087036 392.97186279 C-581.18084 393.78640427 -582.00080963 394.60094574 -582.84562683 395.44017029 C-583.55553363 396.15598487 -584.26544043 396.87179945 -584.99685955 397.60930538 C-587 399 -587 399 -589.09866333 398.85882378 C-592.10924536 397.4989597 -594.22144365 395.21190374 -596.51879883 392.90112305 C-597.05743561 392.37095581 -597.59607239 391.84078857 -598.15103149 391.29455566 C-599.92758997 389.54138066 -601.69274334 387.77723588 -603.45703125 386.01171875 C-604.68652866 384.78932025 -605.91632508 383.56722243 -607.14640808 382.34541321 C-609.72123453 379.78403337 -612.29004343 377.21678973 -614.85522461 374.64575195 C-618.14850653 371.34656298 -621.45969729 368.0660165 -624.77605152 364.79004192 C-627.31964382 362.27225005 -629.85172713 359.74312788 -632.38062096 357.21058083 C-633.5971531 355.99574599 -634.81769084 354.78490903 -636.04221535 353.57813072 C-637.74966281 351.89272896 -639.44058905 350.19231822 -641.12817383 348.48706055 C-641.63977554 347.98872208 -642.15137726 347.49038361 -642.67848206 346.97694397 C-644.05915833 345.56230164 -644.05915833 345.56230164 -646 343 C-645.65839127 339.83673899 -644.56362438 338.18934571 -642.34693813 335.97779465 C-641.49748644 335.11938323 -641.49748644 335.11938323 -640.6308741 334.24363017 C-640.00345331 333.62494791 -639.37603253 333.00626565 -638.729599 332.36883545 C-637.73601414 331.37140568 -637.73601414 331.37140568 -636.72235686 330.35382581 C-634.49377325 328.12028807 -632.25461215 325.89766375 -630.01538086 323.67480469 C-628.41855037 322.07882011 -626.82237959 320.48217524 -625.2268219 318.88491821 C-620.88660524 314.5438388 -616.53718337 310.21208826 -612.18609309 305.88191128 C-607.643015 301.3575532 -603.10839882 296.82473056 -598.57289124 292.29278564 C-590.95697373 284.68514101 -583.33584258 277.08276423 -575.71069336 269.484375 C-567.85659505 261.65781156 -560.00565216 253.82810505 -552.15893555 245.99414062 C-551.67530499 245.51129824 -551.19167443 245.02845585 -550.6933884 244.53098187 C-548.26718793 242.1086965 -545.8410494 239.6863491 -543.41494167 237.26397085 C-523.28622254 217.16635448 -503.14654714 197.07974381 -483 177 C-478.75935836 180.56519706 -474.67278808 184.20270292 -470.75440979 188.12533569 C-470.03490022 188.84356363 -470.03490022 188.84356363 -469.3008551 189.57630122 C-467.71715451 191.15837351 -466.13702082 192.74395801 -464.55688477 194.32958984 C-463.41322464 195.47353244 -462.26934347 196.6172541 -461.1252594 197.76077271 C-458.036753 200.84899347 -454.95132864 203.94027665 -451.86646771 207.03213835 C-448.63583577 210.26904286 -445.40235121 213.50309527 -442.16917419 216.73745728 C-436.05460187 222.85513143 -429.94258206 228.97534911 -423.83148569 235.09649527 C-416.87092383 242.06825398 -409.90750518 249.03715635 -402.94385064 256.00582576 C-388.62606318 270.3340516 -374.31184914 284.66584278 -360 299 C-353.93179724 293.97537701 -348.37768874 288.51573852 -342.81910706 282.93936157 C-341.79857792 281.91926907 -340.77782883 280.89939659 -339.75688022 279.87972391 C-336.96566182 277.09073232 -334.17755561 274.29864788 -331.38996518 271.5060308 C-328.37824239 268.48997757 -325.3636178 265.47682718 -322.34934998 262.46331787 C-317.1318281 257.24631959 -311.91613596 252.02749784 -306.70169258 246.80742264 C-299.16253893 239.26013169 -291.62061574 231.71561329 -284.07802021 224.17176227 C-271.83985061 211.93140566 -259.60391446 199.68881893 -247.36938477 187.44482422 C-235.48676941 175.55302568 -223.60310112 163.66228099 -211.71801758 151.77294922 C-210.98505573 151.03972465 -210.25209388 150.30650008 -209.49692107 149.55105658 C-205.8197512 145.87258164 -202.14256065 142.19412739 -198.46535981 138.51568341 C-167.97369896 108.01366087 -137.48566348 77.50801661 -107 47 C-107.95052271 45.8835778 -108.9021165 44.76806745 -109.85415649 43.65293884 C-110.38395929 43.03164062 -110.91376209 42.41034239 -111.45961952 41.77021694 C-113.39415291 39.54703648 -115.43229192 37.45489861 -117.5234375 35.37890625 C-118.31621094 34.58935547 -119.10898437 33.79980469 -119.92578125 32.98632812 C-120.73402344 32.18646484 -121.54226563 31.38660156 -122.375 30.5625 C-123.20644531 29.73556641 -124.03789063 28.90863281 -124.89453125 28.05664062 C-126.9274104 26.03544469 -128.96259963 24.01663665 -131 22 C-127.98264027 20.31874817 -125.32253881 19.55716966 -121.92103577 19.00021362 C-120.89623611 18.82918121 -119.87143646 18.6581488 -118.81558228 18.48193359 C-117.6970285 18.30210937 -116.57847473 18.12228516 -115.42602539 17.93701172 C-114.24353714 17.74164825 -113.06104889 17.54628479 -111.84272766 17.34500122 C-108.60383291 16.81134921 -105.36404951 16.2835669 -102.12373281 15.75863028 C-98.73010672 15.20765959 -95.33759816 14.64988727 -91.94493103 14.0930481 C-86.24697734 13.15891174 -80.5481996 12.22994445 -74.84887695 11.30419922 C-68.26429759 10.2346119 -61.68096219 9.15762616 -55.09827048 8.07648647 C-48.76107774 7.03578029 -42.42315061 5.9996191 -36.08483696 4.96576309 C-33.3897649 4.52612593 -30.69493706 4.08503338 -28.00029182 3.64278793 C-24.23528328 3.02596121 -20.46946543 2.41434451 -16.70336914 1.80419922 C-15.5868396 1.62032654 -14.47031006 1.43645386 -13.31994629 1.24700928 C-11.77851707 0.99892014 -11.77851707 0.99892014 -10.20594788 0.74581909 C-9.31608216 0.60092985 -8.42621645 0.45604061 -7.50938511 0.30676079 C-4.97963237 -0.00248985 -2.5458513 -0.05457095 0 0 Z " fill="#A51D2A" transform="translate(805,186)"/>
<path d="M0 0 C3.48900572 0.43794604 5.12602558 1.74935523 7.58722401 4.20411396 C8.28551722 4.89335054 8.98381044 5.58258711 9.70326406 6.29270965 C10.46270257 7.05747609 11.22214109 7.82224253 12.0045929 8.61018372 C12.81725953 9.41675924 13.62992616 10.22333477 14.46721905 11.05435199 C16.72311801 13.29646116 18.97214907 15.54520715 21.2184335 17.7969414 C23.64179511 20.22296901 26.07372583 22.64038045 28.50453186 25.0589447 C33.26543096 29.79877127 38.01802397 34.54684293 42.76750622 39.29810695 C46.62619549 43.15810262 50.48742676 47.01553723 54.35048485 50.87116051 C55.4621738 51.98075034 56.573862 53.09034093 57.68554944 54.19993228 C58.23881475 54.75215406 58.79208007 55.30437585 59.36211099 55.87333163 C69.8289367 66.32124852 80.28576098 76.77913177 90.73972519 87.23991515 C100.31271642 96.81848567 109.89885278 106.38377744 119.49116562 115.94299511 C129.33299756 125.75113312 139.16555899 135.56847755 148.98824471 145.39579123 C154.50614756 150.9159427 160.02776521 156.43225578 165.55919838 161.93885231 C170.2667491 166.62544564 174.96557692 171.32057049 179.65317283 176.02712635 C182.04676006 178.42990486 184.44426104 180.82841223 186.85270691 183.21630478 C189.45690806 185.80249594 192.04540385 188.40342545 194.63032532 191.00886536 C195.40091744 191.76693963 196.17150957 192.52501391 196.96545297 193.30606014 C197.65070745 194.00311995 198.33596193 194.70017977 199.0419817 195.41836262 C199.64167013 196.01777867 200.24135856 196.61719472 200.85921937 197.23477489 C202 199 202 199 201.82121056 201.06286734 C200.52544662 204.11941186 198.2196917 206.21370094 195.90112305 208.51879883 C195.37095581 209.05743561 194.84078857 209.59607239 194.29455566 210.15103149 C192.54138066 211.92758997 190.77723588 213.69274334 189.01171875 215.45703125 C187.78932025 216.68652866 186.56722243 217.91632508 185.34541321 219.14640808 C182.78403337 221.72123453 180.21678973 224.29004343 177.64575195 226.85522461 C174.34656298 230.14850653 171.0660165 233.45969729 167.79004192 236.77605152 C165.27225005 239.31964382 162.74312788 241.85172713 160.21058083 244.38062096 C158.99574599 245.5971531 157.78490903 246.81769084 156.57813072 248.04221535 C154.89272896 249.74966281 153.19231822 251.44058905 151.48706055 253.12817383 C150.98872208 253.63977554 150.49038361 254.15137726 149.97694397 254.67848206 C146.57178464 258.0018823 146.57178464 258.0018823 143.86782837 257.99298096 C141.7556446 256.87009499 140.3152166 255.68272198 138.62768555 253.98413086 C137.9898967 253.34934311 137.35210785 252.71455536 136.69499207 252.06053162 C136.01576187 251.36895462 135.33653168 250.67737762 134.63671875 249.96484375 C133.92651077 249.2527626 133.2163028 248.54068146 132.48457336 247.80702209 C130.98074711 246.29647114 129.4805242 244.78232562 127.98364258 243.26489258 C125.71348542 240.96383908 123.43307986 238.67338072 121.15039062 236.38476562 C119.68688052 234.91207369 118.22397097 233.43878466 116.76171875 231.96484375 C116.08856125 231.28743637 115.41540375 230.61002899 114.72184753 229.91209412 C111.66588583 226.81077049 108.69798697 223.6837767 105.8762207 220.36743164 C100.93999968 214.6618395 95.52595302 209.41581728 90.17689514 204.10173035 C88.18088476 202.11862966 86.18814294 200.13229426 84.19616699 198.1451416 C79.96692895 193.9272615 75.73376597 189.71333448 71.5 185.5 C66.5890321 180.61273167 61.67974109 175.72380286 56.77467346 170.83061218 C54.82315749 168.88551955 52.86862615 166.94349334 50.91394043 165.00158691 C45.61950248 159.72878557 40.39538476 154.47218648 35.55014038 148.77722168 C32.63455137 145.43452571 29.46362383 142.341498 26.31640625 139.21875 C25.61603745 138.51979614 24.91566864 137.82084229 24.19407654 137.10070801 C21.98591542 134.89808461 19.77427963 132.69898919 17.5625 130.5 C16.05250186 128.99502492 14.5427341 127.48981865 13.03320312 125.984375 C9.35812359 122.32024171 5.67992644 118.6592652 2 115 C-2.10154273 116.62625846 -4.85003445 119.57455452 -7.89580154 122.64970589 C-8.77899055 123.52943336 -8.77899055 123.52943336 -9.68002176 124.42693311 C-11.66363749 126.40522975 -13.64000378 128.39061524 -15.61651611 130.37600708 C-17.04672224 131.80534153 -18.47736758 133.2342366 -19.90841556 134.66272819 C-23.84883471 138.59866233 -27.78296878 142.54082744 -31.71613693 146.48400569 C-35.95516984 150.73165418 -40.19995889 154.97354333 -44.44406128 159.21612549 C-51.7995516 166.57056576 -59.15139986 173.92863352 -66.50070953 181.28924942 C-74.20967094 189.01003995 -81.92069249 196.72876327 -89.63448334 204.44472885 C-90.11388436 204.92426736 -90.59328539 205.40380586 -91.08721372 205.89787584 C-93.52180406 208.33314283 -95.95643133 210.76837288 -98.39107284 213.20358871 C-115.64101949 230.45773754 -132.88632337 247.71651993 -150.12890625 264.97802734 C-166.88111667 281.74860288 -183.63542386 298.51707913 -200.39257812 315.28271484 C-200.90899537 315.79939514 -201.42541261 316.31607543 -201.95747885 316.8484127 C-207.14349785 322.03706871 -212.32955955 327.22568204 -217.51565254 332.4142641 C-228.08056774 342.9842519 -238.64519791 353.55452457 -249.20965576 364.12496948 C-249.69540577 364.61099407 -250.18115578 365.09701866 -250.68162548 365.59777126 C-283.12585876 398.06040964 -315.5634257 430.52970899 -348 463 C-351.8291161 461.21863094 -354.47260147 458.79752195 -357.41113281 455.81591797 C-358.20204819 455.02544067 -358.20204819 455.02544067 -359.00894165 454.21899414 C-360.74512072 452.48142524 -362.474114 450.73688686 -364.203125 448.9921875 C-365.40766437 447.78391678 -366.61264697 446.57608778 -367.8180542 445.36868286 C-370.98548106 442.19362923 -374.14685513 439.01261478 -377.30700684 435.83032227 C-380.53437089 432.58247924 -383.76742228 429.34030867 -387 426.09765625 C-393.33891303 419.73731018 -399.67144624 413.37065247 -406 407 C-401.86718743 402.07509717 -397.57499273 397.42925801 -393.02593803 392.88892365 C-392.34486388 392.20519766 -391.66378973 391.52147168 -390.96207696 390.81702673 C-388.68367755 388.53097951 -386.40176909 386.24846843 -384.11984253 383.96594238 C-382.46739005 382.30947241 -380.81514842 380.65279207 -379.16309941 378.9959197 C-375.10139881 374.92353241 -371.03737122 370.85347803 -366.97232205 366.78443347 C-362.10175851 361.9088458 -357.23405163 357.03040974 -352.36634269 352.15197238 C-340.04953564 339.80837509 -327.72687228 327.47063019 -315.40339965 315.13368821 C-312.06674774 311.79336441 -308.73026135 308.45287533 -305.39381266 305.11234856 C-284.68317571 284.37646254 -263.9709375 263.64217738 -243.25388908 242.91269684 C-238.45878656 238.11467305 -233.66370719 233.31662612 -228.86865234 228.51855469 C-228.27293562 227.92246706 -227.6772189 227.32637942 -227.06345015 226.71222853 C-207.72272571 207.35933219 -188.39142617 187.99705625 -169.06545106 168.62943188 C-149.19745162 148.71869306 -129.32142846 128.81600193 -109.43466775 108.92400079 C-106.62926596 106.11785851 -103.82394928 103.31163116 -101.01868057 100.50535583 C-100.46656907 99.95305372 -99.91445758 99.40075161 -99.34561543 98.83171307 C-90.44532836 89.92790661 -81.55347164 81.01572651 -72.66462343 72.10050205 C-63.7419667 63.15176697 -54.81021457 54.21219314 -45.86900984 45.28198975 C-41.02157538 40.44002319 -36.17829406 35.59406886 -31.34623718 30.73675156 C-26.9294566 26.29766711 -22.50147898 21.87009292 -18.06399192 17.45171016 C-16.45407374 15.84461852 -14.84844351 14.23321852 -13.24739002 12.61729532 C-11.08363871 10.43466952 -8.90532115 8.26775388 -6.72237968 6.10434723 C-6.09286465 5.46198297 -5.46334961 4.81961871 -4.81475836 4.15778887 C-3.05470169 2.43255854 -3.05470169 2.43255854 0 0 Z " fill="#2D3183" transform="translate(482,29)"/>
<path d="M0 0 C1.10966126 0.94361141 2.21824326 1.88849208 3.32637882 2.83389473 C3.94383789 3.35993644 4.56129696 3.88597815 5.19746691 4.42796052 C7.73039054 6.636994 10.10318834 8.98374491 12.47631836 11.36279297 C12.97477264 11.86110123 13.47322693 12.35940948 13.98678589 12.87281799 C15.60685841 14.49357804 17.22337612 16.11783281 18.83984375 17.7421875 C19.97305199 18.87726406 21.10648362 20.01211763 22.24012756 21.14675903 C25.20308335 24.11350744 28.16302193 27.08324802 31.12231445 30.0536499 C34.15066856 33.0922886 37.18190499 36.12804909 40.21289062 39.1640625 C46.14473089 45.1065826 52.07338261 51.052271 58 57 C56.71146606 59.82993435 55.36374107 61.88601917 53.16755521 64.08084178 C52.58539349 64.66749808 52.00323178 65.25415439 51.40342879 65.85858816 C50.76213161 66.49463132 50.12083442 67.13067448 49.46010399 67.78599167 C48.77738171 68.47102164 48.09465942 69.15605161 47.39124858 69.86184007 C45.08558466 72.17282849 42.77281267 74.47657139 40.46005249 76.78045654 C38.79560439 78.4457762 37.13159561 80.11153505 35.46799052 81.77769685 C31.36363019 85.88607326 27.25462303 89.98976038 23.14366846 94.09153755 C18.22119742 99.00354598 13.30453804 103.92135581 8.38809673 108.83939819 C-0.68575712 117.9158815 -9.76426381 126.98769742 -18.84541702 136.05687714 C-27.83894234 145.03857482 -36.83040229 154.02233181 -45.81910324 163.00885773 C-46.65694365 163.84649192 -46.65694365 163.84649192 -47.51171013 164.70104801 C-50.34825968 167.53692091 -53.18477229 170.37283074 -56.02127068 173.20875481 C-76.1205345 193.30381604 -96.2244329 213.39423478 -116.33105469 233.48193359 C-135.86627815 252.99879303 -155.39940332 272.5177486 -174.9296875 292.03955078 C-175.53152898 292.64112921 -176.13337046 293.24270764 -176.75344956 293.86251571 C-182.79729936 299.90372851 -188.84110649 305.94498401 -194.88488235 311.98627078 C-207.19712665 324.29344244 -219.5096558 336.60032909 -231.82235718 348.90704346 C-232.67156336 349.75583777 -232.67156336 349.75583777 -233.53792523 350.62177945 C-271.3538459 388.41929387 -309.17642746 426.2101429 -347 464 C-354.35307655 457.77228365 -354.35307655 457.77228365 -357.70369625 454.41935158 C-358.35161159 453.77342729 -358.99952692 453.12750301 -359.66707605 452.46200526 C-360.35483875 451.77132972 -361.04260145 451.08065418 -361.75120544 450.36904907 C-362.50039295 449.62071599 -363.24958045 448.87238292 -364.02147061 448.10137308 C-366.51726254 445.60722094 -369.00947669 443.10952506 -371.50170898 440.61181641 C-373.29560728 438.81763589 -375.08972609 437.02367584 -376.88404846 435.22991943 C-380.7394439 431.3747513 -384.59330717 427.51806185 -388.44576836 423.6599617 C-394.0156952 418.08188732 -399.58840076 412.50659575 -405.16177548 406.93196659 C-414.20543096 397.8861257 -423.24685376 388.83805666 -432.28686523 379.78857422 C-441.06531182 371.0009403 -449.84481427 362.21436348 -458.62573242 353.42919922 C-459.16752655 352.88714236 -459.70932068 352.34508551 -460.26753282 351.78660269 C-462.98572211 349.0671083 -465.70393211 346.34763461 -468.4221524 343.62817121 C-490.95131217 321.08865473 -513.47680793 298.54547991 -536 276 C-534.21863094 272.1708839 -531.79752195 269.52739853 -528.81591797 266.58886719 C-528.28893311 266.06159027 -527.76194824 265.53431335 -527.21899414 264.99105835 C-525.48142524 263.25487928 -523.73688686 261.525886 -521.9921875 259.796875 C-520.78391678 258.59233563 -519.57608778 257.38735303 -518.36868286 256.1819458 C-515.19362923 253.01451894 -512.01261478 249.85314487 -508.83032227 246.69299316 C-505.58247924 243.46562911 -502.34030867 240.23257772 -499.09765625 237 C-492.73731018 230.66108697 -486.37065247 224.32855376 -480 218 C-473.14809981 223.61621631 -466.97734003 229.88900813 -460.73071289 236.15576172 C-459.49838391 237.38837312 -458.265834 238.62076367 -457.03308105 239.85295105 C-453.70284703 243.18289925 -450.375696 246.51591228 -447.04910588 249.84950018 C-443.56622732 253.33864805 -440.0804993 256.82494692 -436.59507751 260.31155396 C-430.00239027 266.90734399 -423.41225538 273.50567805 -416.82304233 280.10493863 C-409.31835385 287.62082097 -401.81081122 295.13384957 -394.30303204 302.64664435 C-378.86551871 318.09459823 -363.43157836 333.54611759 -348 349 C-346.89445162 348.06045475 -345.79006574 347.11954151 -344.68615723 346.17807007 C-344.07102516 345.65424932 -343.4558931 345.13042858 -342.82212067 344.59073448 C-340.13469632 342.2445789 -337.61016712 339.75340161 -335.09375 337.2265625 C-334.56535522 336.69912445 -334.03696045 336.1716864 -333.49255371 335.62826538 C-332.38557246 334.52195867 -331.27982896 333.41441213 -330.17529297 332.30566406 C-328.50728934 330.63231271 -326.83402327 328.96435883 -325.16015625 327.296875 C-324.07520021 326.21125784 -322.99055457 325.12533035 -321.90625 324.0390625 C-321.4174939 323.55233063 -320.92873779 323.06559875 -320.4251709 322.56411743 C-317.75132998 319.87262163 -315.20766135 317.1094858 -312.73365784 314.23266602 C-309.3868907 310.39574579 -305.89320116 306.75736885 -302.28295898 303.16943359 C-301.6448828 302.53120855 -301.00680662 301.89298351 -300.3493948 301.23541832 C-298.23399488 299.12070683 -296.11505434 297.00958068 -293.99609375 294.8984375 C-292.46926956 293.37353464 -290.94267449 291.84840235 -289.41629028 290.32305908 C-286.1400536 287.04997335 -282.86227219 283.77844538 -279.58328247 280.50811768 C-274.39447755 275.33287942 -269.20952849 270.15378956 -264.02514648 264.97412109 C-252.08447726 253.04547555 -240.13879501 241.1218543 -228.19306946 229.19827271 C-217.24100617 218.26640793 -206.29001221 207.33347762 -195.34306812 196.39648628 C-190.1932099 191.25159934 -185.0409257 186.10915819 -179.88674927 180.96859741 C-176.67702982 177.76635662 -173.46940085 174.56202804 -170.26232529 171.35713959 C-168.77937007 169.87605049 -167.29555359 168.39582314 -165.81079483 166.91654205 C-163.77720154 164.89021305 -161.74676812 162.86076704 -159.71704102 160.83056641 C-159.13521781 160.25233816 -158.5533946 159.67410992 -157.95394039 159.0783596 C-154.37908398 155.49461922 -151.02831221 151.76922004 -147.71590126 147.94257832 C-145.12760934 145.01236323 -142.38654958 142.2515574 -139.61549377 139.49523926 C-139.01331416 138.89220521 -138.41113454 138.28917117 -137.79070705 137.66786337 C-135.79715819 135.67268358 -133.80008651 133.68106983 -131.80297852 131.68945312 C-130.3633257 130.25008272 -128.92389372 128.8104914 -127.48466492 127.37069702 C-123.59487699 123.48062324 -119.70202266 119.5936314 -115.80859494 115.707201 C-111.73355084 111.63842571 -107.66135529 107.56680147 -103.58885193 103.4954834 C-95.88457564 95.79431004 -88.17775469 88.09568846 -80.47000784 80.3979888 C-71.69173226 71.63090662 -62.91631006 62.86097073 -54.14112198 54.09079838 C-36.09724618 36.05736345 -18.04980432 18.0275009 0 0 Z " fill="#2D3183" transform="translate(775,321)"/>
<path d="M0 0 C11.88 0 23.76 0 36 0 C36.04898438 5.84074219 36.09796875 11.68148438 36.1484375 17.69921875 C36.18386645 21.42254227 36.21985073 25.14584416 36.2578125 28.86914062 C36.31787652 34.7653476 36.37600012 40.66152466 36.421875 46.55786133 C36.45903312 51.3171758 36.50547127 56.07632123 36.55806351 60.83548927 C36.57644671 62.64171158 36.59161241 64.4479699 36.60334396 66.25424767 C36.77170656 92.78463419 36.77170656 92.78463419 50 115 C58.84143243 122.18192066 69.08834881 125.71960741 80.50390625 125.28125 C92.01234845 123.98452412 102.10758423 119.28695978 109.46875 110.20703125 C117.3171135 98.89497671 119.10005263 86.8834433 119.20532227 73.45092773 C119.21522186 72.64982071 119.22512146 71.84871368 119.23532104 71.02333069 C119.26657587 68.41011374 119.29154887 65.79687869 119.31640625 63.18359375 C119.337007 61.35799218 119.35800423 59.53239504 119.37937927 57.70680237 C119.43427789 52.92788306 119.48382769 48.14892304 119.53222656 43.36993408 C119.59156633 37.62199248 119.6576151 31.87412445 119.72252655 26.12624359 C119.82013011 17.41754109 119.90926334 8.70878895 120 0 C131.88 0 143.76 0 156 0 C156.04526093 18.4030959 156.08205534 36.80614628 156.10362434 55.20928383 C156.11390829 63.75542833 156.12791311 72.30153563 156.15087891 80.84765625 C156.17090146 88.3021206 156.18373734 95.75655799 156.18817699 103.21104848 C156.19076945 107.15298706 156.1968018 111.09484853 156.21146011 115.03676224 C156.22518463 118.7582318 156.22919311 122.47959358 156.22621536 126.20108604 C156.22701525 128.19512188 156.23769816 130.18914638 156.24884033 132.18315125 C156.19717698 155.15489311 150.54558214 173.81792833 134.8125 190.75 C114.71540767 209.829962 86.45436812 216.4839926 59.44921875 216.2109375 C39.57014485 215.47180278 17.12291806 212.54039337 -1 204 C-0.4003591 196.7208149 1.14844733 189.97641759 3.0625 182.9375 C3.34416016 181.88111328 3.62582031 180.82472656 3.91601562 179.73632812 C4.60489729 177.15594085 5.29965829 174.57729586 6 172 C10.23313833 173.40561204 14.46381394 174.81310412 18.67578125 176.28125 C41.84406999 184.04548855 67.5076312 186.73425616 90.3203125 176.37890625 C94.48674145 174.23495666 98.30045418 171.87662944 102 169 C102.92232422 168.28457031 102.92232422 168.28457031 103.86328125 167.5546875 C112.85318625 159.62124584 117.68953405 146.43671789 118.84765625 134.75390625 C119.1746596 128.84269176 119.07016877 122.91756586 119 117 C118.5875 117.76183594 118.175 118.52367187 117.75 119.30859375 C109.59334118 133.89226276 99.15803804 144.38482682 83 149.5 C64.16553716 154.6890867 44.77854675 152.6553005 27.671875 143.23046875 C13.53361959 134.9298743 5.6804582 121.59808916 1.46751404 106.03263855 C-0.80222607 95.74112282 -0.2487427 85.18266409 -0.1953125 74.70703125 C-0.19157691 72.54799023 -0.18873252 70.3889475 -0.18673706 68.22990417 C-0.17914362 62.57961246 -0.15953244 56.92942548 -0.1373291 51.2791748 C-0.11677776 45.50058407 -0.10771557 39.72197622 -0.09765625 33.94335938 C-0.07628211 22.62885311 -0.04113541 11.3144517 0 0 Z " fill="#A51D2A" transform="translate(2144,342)"/>
<path d="M0 0 C16.335 -0.061875 32.67 -0.12375 49.5 -0.1875 C54.62724609 -0.21481201 59.75449219 -0.24212402 65.03710938 -0.27026367 C71.37597656 -0.28381348 71.37597656 -0.28381348 74.35852051 -0.28633118 C76.40867068 -0.29088963 78.45881364 -0.3013385 80.50891113 -0.31672668 C105.72950494 -0.49630598 128.21897487 2.88172889 147.5625 20.30859375 C160.11830809 33.22495714 164.52071149 49.39476718 164.42211914 66.99584961 C163.93956517 84.69213196 157.71175496 100.54659905 144.89453125 113.0546875 C126.44096246 128.94268475 104.0038054 132.20022666 80.45703125 132.09765625 C79.34759155 132.09664917 78.23815186 132.09564209 77.09509277 132.09460449 C73.00088448 132.08942248 68.90669106 132.07546175 64.8125 132.0625 C55.634375 132.041875 46.45625 132.02125 37 132 C37 153.12 37 174.24 37 196 C24.79 196 12.58 196 0 196 C0 131.32 0 66.64 0 0 Z M37 32 C37 55.1 37 78.2 37 102 C46.673125 102.0825 56.34625 102.165 66.3125 102.25 C69.34477783 102.28641602 72.37705566 102.32283203 75.5012207 102.36035156 C77.93440037 102.37204612 80.36758794 102.38223612 82.80078125 102.390625 C84.04001343 102.41108887 85.27924561 102.43155273 86.55603027 102.45263672 C98.11586324 102.45722897 108.05604167 99.54646484 117 92 C123.78718513 84.9704154 127.18106864 76.78990638 127.5 67.0625 C127.15070113 56.9983263 124.36678813 49.30955359 117.33984375 42.0078125 C106.76014633 32.9294077 95.71478367 31.69346886 82.3125 31.8046875 C80.58483398 31.80770874 80.58483398 31.80770874 78.82226562 31.81079102 C74.54813617 31.82120063 70.2740638 31.84912295 66 31.875 C56.43 31.91625 46.86 31.9575 37 32 Z " fill="#2D3183" transform="translate(912,296)"/>
<path d="M0 0 C24.5334375 -0.0928125 24.5334375 -0.0928125 49.5625 -0.1875 C54.6988501 -0.21481201 59.8352002 -0.24212402 65.12719727 -0.27026367 C71.47058105 -0.28381348 71.47058105 -0.28381348 74.45396423 -0.28633118 C76.50749165 -0.29089376 78.56101177 -0.30135162 80.61448669 -0.31672668 C104.69492064 -0.48778166 127.55475306 2.42538778 145.7890625 19.796875 C146.88347656 20.88742187 146.88347656 20.88742187 148 22 C148.84691406 22.81210937 148.84691406 22.81210937 149.7109375 23.640625 C160.24264815 34.67384568 163.95839469 50.20217931 164.375 65 C163.86818704 82.34859753 158.5863904 98.35044784 146.2734375 110.89453125 C122.67475816 132.74966556 93.73383225 132.32054394 63.4375 132.125 C54.383125 132.08375 45.32875 132.0425 36 132 C36 153.12 36 174.24 36 196 C24.12 196 12.24 196 0 196 C0 131.32 0 66.64 0 0 Z M36 32 C36 55.1 36 78.2 36 102 C45.838125 102.0825 55.67625 102.165 65.8125 102.25 C70.43922729 102.30462402 70.43922729 102.30462402 75.15942383 102.36035156 C77.63361924 102.37204578 80.10782242 102.38223586 82.58203125 102.390625 C83.84285522 102.41108887 85.1036792 102.43155273 86.40270996 102.45263672 C99.03886293 102.45757416 108.56849464 99.17286828 117.68359375 90.375 C124.46104409 83.07360712 127.3500821 74.31865722 127.21875 64.46875 C126.36821668 54.86987395 122.16292843 47.36704749 115 41 C104.57006938 32.69819664 94.04404038 31.5428622 81.01953125 31.70703125 C79.87077515 31.71005249 78.72201904 31.71307373 77.53845215 31.71618652 C73.29637513 31.73174067 69.05442739 31.77362322 64.8125 31.8125 C55.304375 31.874375 45.79625 31.93625 36 32 Z " fill="#A51D2A" transform="translate(1759,296)"/>
<path d="M0 0 C7.24624973 5.94124795 14.04127496 12.88515463 19.24316406 20.68798828 C22.91509907 15.6331524 26.39934645 10.55202035 29.48925781 5.11767578 C30.01712891 4.20244141 30.545 3.28720703 31.08886719 2.34423828 C32.16600118 0.46222747 33.22282399 -1.43153006 34.26074219 -3.33544922 C34.78990234 -4.23779297 35.3190625 -5.14013672 35.86425781 -6.06982422 C36.32243896 -6.88596191 36.78062012 -7.70209961 37.25268555 -8.54296875 C39.24316406 -10.31201172 39.24316406 -10.31201172 47.24316406 -10.31201172 C47.24316406 39.18798828 47.24316406 88.68798828 47.24316406 139.68798828 C35.36316406 139.68798828 23.48316406 139.68798828 11.24316406 139.68798828 C11.24316406 126.81798828 11.24316406 113.94798828 11.24316406 100.68798828 C10.58316406 100.68798828 9.92316406 100.68798828 9.24316406 100.68798828 C9.12714844 101.40857422 9.01113281 102.12916016 8.89160156 102.87158203 C5.93886541 115.69641796 -5.44502391 127.24835325 -16.15136719 134.22705078 C-33.10919768 143.7356394 -52.97092595 146.30371041 -71.79003906 141.12890625 C-81.33799638 138.22095594 -89.01532971 134.0720429 -96.75683594 127.68798828 C-98.30371094 126.57423828 -98.30371094 126.57423828 -99.88183594 125.43798828 C-114.41033521 111.54116289 -122.38534152 91.43291219 -122.95996094 71.46533203 C-123.29577941 46.57225626 -117.8336785 25.48592508 -100.56933594 6.93798828 C-74.3429014 -17.87449935 -29.36694163 -21.93134302 0 0 Z M-73.75683594 31.68798828 C-83.66799318 44.30954363 -86.17777834 58.0537711 -84.75683594 73.68798828 C-84.18565453 77.29445598 -83.25429378 80.36408566 -81.75683594 83.68798828 C-81.35464844 84.58775391 -80.95246094 85.48751953 -80.53808594 86.41455078 C-74.63918872 98.31066016 -65.43753088 106.3770135 -53.06933594 110.93798828 C-38.30720698 115.50589234 -24.98974657 113.96499207 -11.42016602 106.99047852 C-0.21383517 100.87608281 6.36307957 91.55757837 10.61816406 79.62548828 C14.42133526 66.05871371 13.12571815 52.2886581 6.73535156 39.72314453 C0.03720235 28.36744505 -8.59820963 22.42066741 -20.75683594 17.68798828 C-21.44390625 17.41986328 -22.13097656 17.15173828 -22.83886719 16.87548828 C-40.54934212 11.31926085 -61.40321153 18.37632769 -73.75683594 31.68798828 Z " fill="#A51D2A" transform="translate(2062.7568359375,352.31201171875)"/>
<path d="M0 0 C6.35484143 5.2799814 11.19485785 11.09146512 15.66137695 18.06787109 C21.15316132 10.4792236 26.23062548 2.63355328 31.3046875 -5.23779297 C31.85294189 -6.08696289 32.40119629 -6.93613281 32.96606445 -7.81103516 C33.46090332 -8.5800415 33.95574219 -9.34904785 34.46557617 -10.14135742 C35.66137695 -11.93212891 35.66137695 -11.93212891 36.66137695 -12.93212891 C38.97137695 -12.93212891 41.28137695 -12.93212891 43.66137695 -12.93212891 C43.66137695 36.56787109 43.66137695 86.06787109 43.66137695 137.06787109 C31.78137695 137.06787109 19.90137695 137.06787109 7.66137695 137.06787109 C7.33137695 124.52787109 7.00137695 111.98787109 6.66137695 99.06787109 C4.35137695 103.68787109 2.04137695 108.30787109 -0.33862305 113.06787109 C-10.80043101 127.19867932 -24.94306208 136.8546783 -42.33862305 140.06787109 C-62.52112857 142.63039278 -81.53596324 139.06977095 -98.33862305 127.06787109 C-115.30579876 113.17018758 -124.19309705 93.64081811 -126.33862305 72.06787109 C-128.10990895 48.83497289 -122.75867571 28.12354506 -108.46362305 9.52880859 C-81.50773285 -21.68849072 -32.18034644 -25.31161556 0 0 Z M-75.33862305 27.06787109 C-86.15421619 39.91535649 -89.75022026 53.45597424 -88.33862305 70.06787109 C-86.67349418 79.1859563 -82.8725893 86.6932079 -77.33862305 94.06787109 C-76.86166992 94.71369141 -76.3847168 95.35951172 -75.89331055 96.02490234 C-68.76941754 104.28638036 -55.90959489 109.77180876 -45.2565918 110.95068359 C-31.89008289 111.48749118 -18.75064532 108.94963933 -8.36206055 100.00927734 C1.42714813 90.61692848 8.29843532 80.48075843 8.99731445 66.55224609 C9.1776148 57.08053385 8.7983604 48.78139248 4.66137695 40.06787109 C4.24887695 39.19904297 3.83637695 38.33021484 3.41137695 37.43505859 C-3.07950387 25.37529707 -13.80088906 18.31823826 -26.58862305 14.25537109 C-43.73311937 10.02365479 -62.72124379 14.45049183 -75.33862305 27.06787109 Z " fill="#2D3183" transform="translate(1680.338623046875,354.93212890625)"/>
<path d="M0 0 C1.06734375 0.37382812 2.1346875 0.74765625 3.234375 1.1328125 C21.38538583 8.08916437 35.75002884 20.80031024 44.3125 38.3125 C53.51937815 59.82079035 54.41166695 82.45318434 46.47265625 104.46484375 C42.32053196 114.43214477 36.60372884 122.3833616 29 130 C28.31292969 130.69867188 27.62585937 131.39734375 26.91796875 132.1171875 C10.44166528 147.82928394 -11.87749054 153.48574219 -34.14501953 152.97607422 C-57.37180378 152.00496851 -78.51451094 143.71996904 -94.71875 126.7265625 C-109.81047067 108.68885526 -114.66353888 86.98094578 -113 64 C-110.40224948 43.74157343 -100.90265843 25.41065833 -84.92578125 12.51953125 C-60.81843985 -4.84124416 -28.28579531 -10.2552765 0 0 Z M-67 40 C-67.51304688 40.515625 -68.02609375 41.03125 -68.5546875 41.5625 C-76.47301359 50.21855833 -79.80741582 62.50025105 -80.375 74 C-79.59092965 89.28937185 -74.11022479 102.08917356 -63.01171875 112.58203125 C-52.95722552 120.6543157 -39.92077557 125.12535787 -27 124 C-13.14133016 122.02497217 -0.75643779 116.87474718 7.90625 105.49609375 C16.39304339 92.85580614 19.61680469 79.75608837 17.5390625 64.6484375 C14.66136388 50.46307605 7.63141565 39.5667771 -4.36328125 31.5703125 C-25.25047961 19.13082548 -50.23004201 22.67310614 -67 40 Z " fill="#2D3183" transform="translate(1206,343)"/>
<path d="M0 0 C3.63 0 7.26 0 11 0 C11 12.21 11 24.42 11 37 C29.48 37 47.96 37 67 37 C67 46.24 67 55.48 67 65 C48.52 65 30.04 65 11 65 C11.09102224 77.19743938 11.09102224 77.19743938 11.20898438 89.39453125 C11.26312539 94.37578434 11.31424167 99.35692931 11.34643555 104.33837891 C11.37261736 108.35861367 11.41312235 112.37848133 11.46318626 116.39848709 C11.47975512 117.9252729 11.49133111 119.45212205 11.49761391 120.97898483 C11.54705867 131.89961162 11.84556358 142.16216678 19 151 C25.71029701 157.52389987 32.89833415 158.41725486 41.84814453 158.36206055 C48.17648371 158.17680126 53.94275148 156.79027406 60 155 C61.66304425 154.64904032 63.32886189 154.31013915 65 154 C65.63149942 164.67910627 66.17291697 175.2983611 66 186 C44.56205603 192.27950675 19.67167742 194.24594093 -0.77734375 183.546875 C-3.2485533 182.10987209 -5.63017162 180.59743987 -8 179 C-8.886875 178.4225 -9.77375 177.845 -10.6875 177.25 C-19.38430341 168.78824533 -24.73449527 157.36830092 -25.12025452 145.20976257 C-25.12313634 143.71365466 -25.12053382 142.21752982 -25.11352539 140.72143555 C-25.11367142 139.90140549 -25.11381744 139.08137543 -25.1139679 138.23649597 C-25.1132734 135.53654296 -25.1055027 132.83665965 -25.09765625 130.13671875 C-25.09579043 128.26056455 -25.0943673 126.38440987 -25.09336853 124.508255 C-25.0895563 119.577979 -25.07973707 114.6477326 -25.06866455 109.71746826 C-25.05842259 104.68339437 -25.05386494 99.64931569 -25.04882812 94.61523438 C-25.03811363 84.7434745 -25.02052732 74.87174435 -25 65 C-36.22 65 -47.44 65 -59 65 C-60.62539773 48.62992282 -60.62539773 48.62992282 -57.91601562 44.24609375 C-54.80753263 40.9945425 -50.98568414 38.72596819 -47.16943359 36.39257812 C-43.21562254 33.85459273 -39.60972916 30.86101089 -35.9375 27.9375 C-34.40280253 26.74122714 -32.86636932 25.54717739 -31.328125 24.35546875 C-30.59271484 23.78489746 -29.85730469 23.21432617 -29.09960938 22.62646484 C-23.48119886 18.2741566 -17.84342827 13.94708104 -12.20361328 9.62255859 C-10.97707749 8.68192407 -9.75075522 7.74101107 -8.5246582 6.79980469 C-7.36614335 5.91047839 -6.2071478 5.02177782 -5.04760742 4.13378906 C-2.43115303 2.17531019 -2.43115303 2.17531019 0 0 Z " fill="#2D3183" transform="translate(1472,305)"/>
<path d="M0 0 C0.72777649 -0.00012085 1.45555298 -0.0002417 2.2053833 -0.00036621 C18.77658429 0.0387651 32.47682557 2.68475475 48.125 8.375 C48.125 17.285 48.125 26.195 48.125 35.375 C45.36125 34.42625 42.5975 33.4775 39.75 32.5 C22.52882521 26.74481621 2.89844232 22.88132493 -14.3125 30.625 C-18.48796722 32.90856236 -20.96998416 34.87223529 -22.875 39.375 C-23.64748265 43.9441527 -23.34784865 47.32650952 -21.4375 51.5625 C-11.72260888 62.22518537 2.37388 64.32932373 15.875 67.375 C31.55471101 70.94906493 45.56356624 76.81675444 55.125 90.375 C60.80101542 101.26636872 61.83128995 113.25784598 58.5 125.0625 C54.57393934 136.48624594 47.9962435 143.87881491 37.4921875 149.87890625 C12.31901442 162.17192809 -20.03037428 158.53313088 -45.859375 149.83984375 C-53.68504904 147.06679951 -61.95548352 143.98801099 -68.875 139.375 C-68.2186874 133.31864701 -66.61471507 127.74556667 -64.8125 121.9375 C-64.53083984 121.01517578 -64.24917969 120.09285156 -63.95898438 119.14257812 C-63.26892401 116.88526202 -62.57416877 114.62950816 -61.875 112.375 C-58.10675424 112.93693139 -55.65441983 113.95401938 -52.5 116.0625 C-34.32609539 127.29629542 -12.0902733 132.19907803 8.8046875 127.34765625 C14.89404185 125.56383362 18.75997734 123.52594479 22.1875 118.125 C23.67273955 112.18404181 23.42154299 107.69046629 20.41015625 102.3125 C12.77773252 92.50124762 -2.17347282 90.50818718 -13.57226562 87.94750977 C-27.62315465 84.73781129 -43.84413101 79.40147431 -52.875 67.375 C-59.79518751 55.31946973 -61.84240539 44.00962374 -59.296875 30.25 C-55.3341128 19.01016539 -45.38563966 11.02854964 -34.9921875 5.97265625 C-23.42466117 0.86933581 -12.52689798 -0.03188678 0 0 Z " fill="#2D3183" transform="translate(1341.875,338.625)"/>
<path d="M0 0 C6.75867288 5.51331281 11.09748254 12.14362331 12.5703125 20.80859375 C13.72540623 32.20020776 11.94236765 40.40970018 5.03515625 49.66015625 C-0.68707447 55.97268025 -8.33557123 60.797229 -16.96484375 61.66015625 C-17.57328125 61.72332031 -18.18171875 61.78648437 -18.80859375 61.8515625 C-28.39769564 62.3900809 -37.29757131 59.60854129 -44.52734375 53.28515625 C-52.09327721 45.75595063 -55.95291706 38.02490447 -56.40234375 27.28515625 C-56.02473208 16.98797658 -52.58772815 9.13555704 -45.39453125 1.7890625 C-31.99981005 -9.94746974 -14.36287051 -10.3098559 0 0 Z " fill="#2E3284" transform="translate(465.96484375,316.33984375)"/>
<path d="M0 0 C6.2604899 5.70610527 10.40263629 13.79998693 11.109375 22.24609375 C11.34985087 32.662496 9.32253904 41.42571119 2.625 49.6171875 C-4.55024828 56.90429934 -13.43458382 60.38915728 -23.56640625 60.8359375 C-32.94029986 60.53141836 -41.35423728 56.8462584 -48.12890625 50.3984375 C-56.13734146 41.62556075 -57.8732513 33.13331412 -57.46875 21.53125 C-56.8507985 11.80676062 -52.29774463 4.83005492 -45.12890625 -1.6015625 C-30.98643664 -11.8824358 -13.72232033 -10.32321346 0 0 Z " fill="#2E3284" transform="translate(526.12890625,268.6015625)"/>
<path d="M0 0 C5.67003705 2.13117897 10.24945566 6.22644773 13.1875 11.53125 C15.35388221 18.11371901 15.24629036 26.09609422 12.5 32.5 C9.47068662 37.54885564 4.53111785 41.15629405 -1 43 C-8.50602499 43.66762611 -15.25525541 44.14804065 -21.45703125 39.4140625 C-27.12672367 34.21804059 -29.52799853 28.65801138 -30.5 21.125 C-30.21009591 14.98869671 -27.39114252 9.26312724 -22.95703125 5.06640625 C-15.59497274 -0.52553983 -9.07764406 -0.94923588 0 0 Z " fill="#FCFCFD" transform="translate(452,322)"/>
<path d="M0 0 C4.75768178 3.6732102 7.35692307 8.21384613 10 13.5 C10.94291835 21.38010335 9.85253122 27.16616977 5 33.5 C0.39885128 38.55620739 -5.48050507 41.55495808 -12.3125 42 C-17.90685667 41.76133291 -22.51459177 39.80703827 -27 36.5 C-32.67061784 29.94550043 -34.43301338 24.15617697 -34.33984375 15.57421875 C-33.5543445 8.46861061 -28.99605093 4.07863901 -23.74609375 -0.37109375 C-17.19539627 -4.60633217 -6.41029966 -3.97546315 0 0 Z " fill="#FCFCFD" transform="translate(515,275.5)"/>
<path d="M0 0 C5.94 0 11.88 0 18 0 C19.71415181 9.34991897 21.31900003 18.6338161 22.35302734 28.08398438 C22.48172698 31.32580206 22.48172698 31.32580206 24 34 C24.3623877 33.32533691 24.72477539 32.65067383 25.09814453 31.95556641 C26.77128871 28.84403994 28.44812174 25.73451556 30.125 22.625 C30.69476562 21.56410156 31.26453125 20.50320313 31.8515625 19.41015625 C32.99580102 17.29071444 34.15287218 15.17814986 35.32275391 13.07275391 C36.41263388 11.07606842 37.45478456 9.05231355 38.43896484 7.00146484 C41.79157091 0.43492499 41.79157091 0.43492499 45.15576172 -0.77587891 C47.64076954 -0.98650753 49.89567638 -0.88202717 52.375 -0.625 C53.20644531 -0.57988281 54.03789063 -0.53476562 54.89453125 -0.48828125 C56.93282205 -0.3711381 58.96737092 -0.19175746 61 0 C61 0.99 61 1.98 61 3 C58.69 3.66 56.38 4.32 54 5 C53.91363281 5.59941406 53.82726563 6.19882812 53.73828125 6.81640625 C52.41536129 15.34863313 50.57207065 23.74288383 48.67700195 32.16430664 C48.35348755 33.6163147 48.35348755 33.6163147 48.0234375 35.09765625 C47.82669434 35.96914307 47.62995117 36.84062988 47.42724609 37.73852539 C46.90718011 40.10772906 46.90718011 40.10772906 47 43 C48.65 43.66 50.3 44.32 52 45 C51.67 46.32 51.34 47.64 51 49 C44.4 49 37.8 49 31 49 C31 47.68 31 46.36 31 45 C33.31 44.34 35.62 43.68 38 43 C38.09796875 42.36578125 38.1959375 41.7315625 38.296875 41.078125 C39.91228972 30.99570899 41.96066869 21.00370674 44 11 C43.61779297 11.65895264 43.23558594 12.31790527 42.84179688 12.99682617 C39.15332665 19.35122591 35.44779569 25.69535733 31.73095703 32.03320312 C30.29291119 34.49796096 28.87354034 36.97155661 27.46484375 39.453125 C26.78971854 40.61496479 26.11401053 41.7764663 25.4375 42.9375 C24.87933594 43.91589844 24.32117187 44.89429688 23.74609375 45.90234375 C21.58326709 48.50063886 20.25085525 48.49841292 17 49 C16.37367809 44.95853708 15.74919781 40.91679149 15.125 36.875 C14.95097656 35.75222656 14.77695313 34.62945313 14.59765625 33.47265625 C13.34025398 25.3228267 12.15058169 17.16556828 11 9 C10.79318604 9.95890137 10.58637207 10.91780273 10.37329102 11.90576172 C9.6063138 15.45843649 8.83580073 19.01033656 8.06420898 22.56201172 C7.73055851 24.10021349 7.3978713 25.63862452 7.06616211 27.17724609 C6.5896014 29.38694911 6.10959789 31.59587994 5.62890625 33.8046875 C5.48095108 34.49432587 5.33299591 35.18396423 5.18055725 35.89450073 C4.11387171 40.77225659 4.11387171 40.77225659 3 43 C4.98 43.66 6.96 44.32 9 45 C9 46.32 9 47.64 9 49 C2.73 49 -3.54 49 -10 49 C-9.34 47.35 -8.68 45.7 -8 44 C-7.17991455 43.7333252 -6.3598291 43.46665039 -5.51489258 43.19189453 C-2.59353872 42.166532 -2.59353872 42.166532 -1.69799805 38.46826172 C-1.36358877 36.96017946 -1.05293523 35.44670253 -0.76171875 33.9296875 C-0.59122513 33.13345978 -0.42073151 32.33723206 -0.24507141 31.51687622 C0.29465227 28.97338881 0.80382446 26.42485919 1.3125 23.875 C1.67313542 22.1493215 2.03574211 20.42405371 2.40039062 18.69921875 C3.28986906 14.4705712 4.15200068 10.237152 5 6 C4.175 5.566875 3.35 5.13375 2.5 4.6875 C1.2625 3.8521875 1.2625 3.8521875 0 3 C0 2.01 0 1.02 0 0 Z " fill="#2C3184" transform="translate(1153,571)"/>
<path d="M0 0 C0 0.99 0 1.98 0 3 C0.54785156 2.5153125 1.09570312 2.030625 1.66015625 1.53125 C5.76254898 -1.15345442 10.27739427 -0.76960982 15 0 C17.89683868 2.2015974 19.39297231 3.78594462 21 7 C22.23997367 23.62784365 22.23997367 23.62784365 17 30 C9.49272176 37.71875087 9.49272176 37.71875087 3.9140625 38.16796875 C-0.51705096 38.20577689 -3.96625532 38.08193274 -8 36 C-8.06058594 36.68707031 -8.12117188 37.37414062 -8.18359375 38.08203125 C-8.26738281 38.98308594 -8.35117188 39.88414062 -8.4375 40.8125 C-8.51871094 41.70582031 -8.59992188 42.59914063 -8.68359375 43.51953125 C-9 46 -9 46 -10 49 C-8.35 49.33 -6.7 49.66 -5 50 C-5 51.32 -5 52.64 -5 54 C-11.27 54 -17.54 54 -24 54 C-23.67 52.68 -23.34 51.36 -23 50 C-20.525 49.505 -20.525 49.505 -18 49 C-17.86948242 48.33170166 -17.73896484 47.66340332 -17.60449219 46.97485352 C-14.98124306 33.5864056 -12.26202158 20.24854573 -9 7 C-11.475 6.01 -11.475 6.01 -14 5 C-14 4.01 -14 3.02 -14 2 C-9.15758367 0.66416101 -5.06562383 -0.25328119 0 0 Z M-1 8 C-2.88651032 11.82790093 -3.77022607 15.84765752 -4.6875 20 C-4.95949219 21.19625 -5.23148438 22.3925 -5.51171875 23.625 C-5.97514298 26.82818827 -5.87022388 28.91625365 -5 32 C1.70349445 32.52008749 1.70349445 32.52008749 7.9375 30.4375 C12.70924045 24.79817038 13.56410164 19.70738539 13.35546875 12.46484375 C13.15517894 9.82492309 13.15517894 9.82492309 11.25 7.375 C6.29318854 4.34583744 3.99167332 4.74456088 -1 8 Z " fill="#2C3184" transform="translate(2050,582)"/>
<path d="M0 0 C0 0.99 0 1.98 0 3 C0.61875 2.505 1.2375 2.01 1.875 1.5 C6.27438491 -0.61170476 10.2020639 -0.84437362 15 0 C18.76041161 2.7419668 20.8213751 5.49979583 22 10 C22.7794949 17.950848 20.4894192 26.23220352 15.50390625 32.52734375 C11.40512691 36.54095365 6.9437663 38.21885253 1.25 38.3125 C-1.75054245 38.20996348 -4.01921431 37.74519642 -7 37 C-7.99 40.96 -8.98 44.92 -10 49 C-8.02 49.66 -6.04 50.32 -4 51 C-4.33 51.99 -4.66 52.98 -5 54 C-11.27 54 -17.54 54 -24 54 C-23.67 52.68 -23.34 51.36 -23 50 C-20.525 49.505 -20.525 49.505 -18 49 C-17.86424561 48.31075439 -17.72849121 47.62150879 -17.58862305 46.91137695 C-12.79843062 22.64012266 -12.79843062 22.64012266 -10.48046875 13.35546875 C-9.866757 10.74744637 -9.866757 10.74744637 -10 7 C-11.32 6.34 -12.64 5.68 -14 5 C-14 4.01 -14 3.02 -14 2 C-4.58997722 -0.29612756 -4.58997722 -0.29612756 0 0 Z M-1 8 C-2.71940867 12.24576005 -3.69889273 16.65938863 -4.6875 21.125 C-4.95949219 22.32382812 -5.23148438 23.52265625 -5.51171875 24.7578125 C-5.95236147 27.68368014 -6.01025307 29.27435077 -5 32 C0.11934966 32.45527813 3.84350216 32.63081701 8.4375 30.125 C12.02215393 26.509708 13.35404305 21.95478344 14 17 C13.87944563 13.72996275 13.40242012 10.96762115 12 8 C7.06864743 3.93163413 4.25733681 4.71416449 -1 8 Z " fill="#2C3184" transform="translate(1689,582)"/>
<path d="M0 0 C6.93 0 13.86 0 21 0 C21 0.99 21 1.98 21 3 C18.69 3.66 16.38 4.32 14 5 C13.15370989 8.99737031 12.32533213 12.99825449 11.5 17 C11.26152344 18.12535156 11.02304688 19.25070312 10.77734375 20.41015625 C8.45529814 30.46176177 8.45529814 30.46176177 9.9375 40.4375 C13.30519673 42.9887854 16.85204376 43.17046396 21 43 C25.21396133 41.64835203 27.6092002 39.85317215 30.00317383 36.12915039 C32.32805551 31.16336712 33.10822042 25.59313477 34.1875 20.25 C34.69982033 17.79645599 35.21404411 15.34330841 35.73046875 12.890625 C35.95114014 11.80813477 36.17181152 10.72564453 36.39916992 9.61035156 C37 7 37 7 38 5 C36.02 4.34 34.04 3.68 32 3 C32 2.01 32 1.02 32 0 C37.94 0 43.88 0 50 0 C49.67 1.32 49.34 2.64 49 4 C47.78969116 4.4172937 47.78969116 4.4172937 46.55493164 4.84301758 C43.70423246 5.77840185 43.70423246 5.77840185 42.85327148 8.86987305 C42.61165283 10.07168213 42.37003418 11.27349121 42.12109375 12.51171875 C41.98228287 13.15816849 41.84347198 13.80461823 41.70045471 14.47065735 C41.25878198 16.53924388 40.84620786 18.61216963 40.4375 20.6875 C36.69729152 39.19707158 36.69729152 39.19707158 30.8125 45.25 C24.9923171 48.87144714 18.88269502 50.75083946 12 50 C7.78967244 48.97522216 4.76778212 47.70872196 1.5625 44.75 C-1.52114837 39.32277888 -1.14084714 34.19136993 0.1796875 28.26171875 C0.44910156 27.03001953 0.71851563 25.79832031 0.99609375 24.52929688 C1.28613281 23.26150391 1.57617188 21.99371094 1.875 20.6875 C2.15730469 19.40037109 2.43960937 18.11324219 2.73046875 16.78710938 C4.82571547 7.34856906 4.82571547 7.34856906 6 5 C4.02 4.34 2.04 3.68 0 3 C0 2.01 0 1.02 0 0 Z " fill="#2C3184" transform="translate(1904,571)"/>
<path d="M0 0 C4.37487331 -0.08738991 8.74952078 -0.140524 13.125 -0.1875 C14.3625 -0.21263672 15.6 -0.23777344 16.875 -0.26367188 C18.07382813 -0.27333984 19.27265625 -0.28300781 20.5078125 -0.29296875 C21.60754395 -0.3086792 22.70727539 -0.32438965 23.84033203 -0.34057617 C28.49128906 0.16074395 31.86625022 1.63950027 34.875 5.25 C36.82503649 10.01675586 36.39069328 13.69002841 34.9375 18.5625 C32.12001072 23.56127131 28.49650504 27.16783165 23 29 C20.60509014 29.06970052 18.20832309 29.08448003 15.8125 29.0625 C14.54019531 29.05347656 13.26789063 29.04445313 11.95703125 29.03515625 C10.49330078 29.01775391 10.49330078 29.01775391 9 29 C8.66179834 30.5823006 8.32964061 32.16589375 8 33.75 C7.814375 34.63171875 7.62875 35.5134375 7.4375 36.421875 C6.88846325 39.22143965 6.88846325 39.22143965 7 43 C8.65 43.66 10.3 44.32 12 45 C11.67 46.32 11.34 47.64 11 49 C4.07 49 -2.86 49 -10 49 C-9.67 47.68 -9.34 46.36 -9 45 C-8.03755371 44.59096436 -7.07510742 44.18192871 -6.08349609 43.76049805 C-2.64822578 42.22849979 -2.64822578 42.22849979 -1.58447266 38.35473633 C-1.25153188 36.85272397 -0.94621787 35.34440654 -0.6640625 33.83203125 C-0.49498383 33.03721848 -0.32590515 32.2424057 -0.15170288 31.42350769 C0.38133021 28.89081485 0.87847286 26.35257518 1.375 23.8125 C1.73072864 22.0913107 2.08877548 20.37059878 2.44921875 18.65039062 C3.32644677 14.43865481 4.1715666 10.2215928 5 6 C4.175 5.566875 3.35 5.13375 2.5 4.6875 C1.2625 3.8521875 1.2625 3.8521875 0 3 C0 2.01 0 1.02 0 0 Z M14 5 C13.32713788 7.41509441 12.66153988 9.83180356 12 12.25 C11.71382812 13.27287109 11.71382812 13.27287109 11.421875 14.31640625 C10.50042956 17.70600912 10 20.45778976 10 24 C17.24676195 24.73705574 17.24676195 24.73705574 23.5625 21.6875 C26.46503321 18.48727108 26.92440716 16.83152124 27.3125 12.5625 C27.2615611 9.04356939 27.2615611 9.04356939 25.5625 6.5625 C21.78993176 4.26215351 18.30933841 4.66851243 14 5 Z " fill="#2C3184" transform="translate(1574,571)"/>
<path d="M0 0 C4.37477474 -0.11651725 8.74914827 -0.18736 13.125 -0.25 C14.3625 -0.28351562 15.6 -0.31703125 16.875 -0.3515625 C28.21173785 -0.47346291 28.21173785 -0.47346291 33 4 C35.65499376 6.65499376 35.32897553 8.04963297 35.375 11.75 C35.26140752 17.03205052 34.81164502 20.09306385 31 24 C25.5719362 28.89308635 20.82046367 29.51258906 13.63671875 29.2734375 C11 29 11 29 8 28 C7.90912109 28.87011719 7.90912109 28.87011719 7.81640625 29.7578125 C7.33983439 34.20092863 6.78991334 38.59905423 6 43 C7.98 43.66 9.96 44.32 12 45 C11.67 46.32 11.34 47.64 11 49 C4.07 49 -2.86 49 -10 49 C-9.67 47.68 -9.34 46.36 -9 45 C-5.9375 43.75 -5.9375 43.75 -3 43 C-2.85900879 42.28980713 -2.71801758 41.57961426 -2.57275391 40.84790039 C-1.92454618 37.5858919 -1.27478365 34.32419492 -0.625 31.0625 C-0.40328125 29.94552734 -0.1815625 28.82855469 0.046875 27.67773438 C1.16652192 22.06303438 2.31157214 16.4661272 3.65478516 10.90014648 C4.11916796 8.6659457 4.11916796 8.6659457 4 5 C1.525 4.01 1.525 4.01 -1 3 C-0.67 2.01 -0.34 1.02 0 0 Z M13 5 C12.49356447 7.22771342 11.9951038 9.45724076 11.5 11.6875 C11.2215625 12.92886719 10.943125 14.17023437 10.65625 15.44921875 C10.10645874 18.42398218 9.86204295 20.99368602 10 24 C14.73624704 24.37889976 18.09935347 24.44213557 22.4375 22.3125 C25.19462183 19.82436567 26.24379481 18.61298033 27 15 C26.8747837 11.36872716 26.75166734 8.97090365 24.5 6.0625 C20.71687979 4.45467391 17.05279715 4.76618478 13 5 Z " fill="#2C3184" transform="translate(922,571)"/>
<path d="M0 0 C4.62 0 9.24 0 14 0 C12.37621377 10.41929499 10.22046262 20.69532881 8 31 C9.22976563 29.64455078 9.22976563 29.64455078 10.484375 28.26171875 C11.57273782 27.07014912 12.66128943 25.87875191 13.75 24.6875 C14.28882813 24.09259766 14.82765625 23.49769531 15.3828125 22.88476562 C22.40710672 15.21800547 22.40710672 15.21800547 26.140625 14.70703125 C28.09375 14.8046875 30.046875 14.90234375 32 15 C32 17.64 32 20.28 32 23 C31.40832031 23.02578125 30.81664062 23.0515625 30.20703125 23.078125 C26.25140601 23.36205242 23.43305278 23.77481255 19.875 25.625 C17.72103204 27.88986765 17.72103204 27.88986765 17.8125 31 C19.05960776 36.69928247 22.26381867 41.90417605 25 47 C27.31 47 29.62 47 32 47 C32 48.32 32 49.64 32 51 C27.47806839 53.2609658 23.96161052 53.40012988 19 53 C15.82387087 50.69868559 14.7512491 47.49332735 13.3125 43.9375 C12.87550781 42.87402344 12.43851563 41.81054688 11.98828125 40.71484375 C11 38 11 38 11 36 C8.4382066 37.00094057 8.4382066 37.00094057 6 39 C4.96174198 42.39705646 4.96174198 42.39705646 4.6875 46.1875 C4.54699219 47.45980469 4.40648437 48.73210938 4.26171875 50.04296875 C4.17535156 51.01878906 4.08898438 51.99460937 4 53 C1.03 53 -1.94 53 -5 53 C-3.65784331 43.14413127 -1.63984546 33.54749152 0.625 23.875 C1.11315163 21.78250813 1.59985611 19.68972162 2.08261108 17.59597778 C2.51461639 15.72316531 2.95173557 13.8515346 3.38916016 11.97998047 C4.10040295 9.01717475 4.10040295 9.01717475 4 6 C2.68 5.34 1.36 4.68 0 4 C0 2.68 0 1.36 0 0 Z " fill="#2C3184" transform="translate(1230,567)"/>
<path d="M0 0 C1.90652344 -0.04253906 1.90652344 -0.04253906 3.8515625 -0.0859375 C8.02282376 0.45974856 9.61801103 1.20804984 12.375 4.375 C14.23593708 10.48728287 12.72398899 16.2214534 11.4375 22.3125 C11.24220703 23.28251953 11.04691406 24.25253906 10.84570312 25.25195312 C10.36569255 27.62859087 9.87525077 30.00255514 9.375 32.375 C12.015 32.375 14.655 32.375 17.375 32.375 C17.375 33.695 17.375 35.015 17.375 36.375 C12.87843896 38.62328052 9.29627034 38.54182272 4.375 38.375 C3.715 37.055 3.055 35.735 2.375 34.375 C1.26125 35.035 0.1475 35.695 -1 36.375 C-5.81957698 38.77621273 -10.31783185 39.33310823 -15.625 38.375 C-18.20137471 36.48984777 -19.22167428 35.18165143 -20.625 32.375 C-21.00338031 27.36146089 -20.75635639 24.37017885 -17.625 20.375 C-13.57506567 16.20594995 -9.27544561 14.94565759 -3.625 14.375 C-0.86718001 14.49828003 1.64855238 14.87928225 4.375 15.375 C4.395625 14.075625 4.41625 12.77625 4.4375 11.4375 C4.44910156 10.70660156 4.46070313 9.97570312 4.47265625 9.22265625 C4.58061184 7.35767859 4.58061184 7.35767859 3.375 6.375 C-2.02902141 5.82356924 -5.26139178 6.86956166 -9.828125 9.5 C-11.625 10.375 -11.625 10.375 -14.625 10.375 C-14.625 7.735 -14.625 5.095 -14.625 2.375 C-9.62814375 0.76102834 -5.30262815 0.05399825 0 0 Z M-9.625 21.375 C-12.01841806 24.14238963 -12.68699795 25.46569677 -12.4375 29.125 C-11.85503121 31.54721913 -11.85503121 31.54721913 -9.625 32.375 C-5.35365231 32.8585488 -3.32553885 32.86233137 0.25 30.375 C2.9927954 26.50281826 3.13650722 24.06535801 3.375 19.375 C-1.34927216 19.1445477 -5.20985297 19.62560212 -9.625 21.375 Z " fill="#2C3184" transform="translate(1081.625,581.625)"/>
<path d="M0 0 C0 0.99 0 1.98 0 3 C0.598125 2.505 1.19625 2.01 1.8125 1.5 C6.51741031 -0.71407544 10.88689272 -0.66863711 16 0 C18.6875 1.375 18.6875 1.375 20 4 C21.77920095 13.10644786 18.1494587 23.19105764 16 32 C18.64 32 21.28 32 24 32 C24 33.32 24 34.64 24 36 C19.47806839 38.2609658 15.96161052 38.40012988 11 38 C9 36.9375 9 36.9375 8 35 C7.23594846 29.14227152 8.93663434 23.85299138 10.33203125 18.1796875 C11.14551668 14.30730659 11.23149853 10.93547501 11 7 C9.5629191 6.94577053 8.12524538 6.90710277 6.6875 6.875 C5.48673828 6.84019531 5.48673828 6.84019531 4.26171875 6.8046875 C1.71611424 6.84182678 1.71611424 6.84182678 -1 9 C-1.76064283 10.8429897 -1.76064283 10.8429897 -2.1328125 13 C-2.2987793 13.80074951 -2.46474609 14.60149902 -2.63574219 15.42651367 C-2.79719727 16.27576416 -2.95865234 17.12501465 -3.125 18 C-3.29676758 18.85762939 -3.46853516 19.71525879 -3.64550781 20.59887695 C-4.77508846 26.3866069 -5.61383463 32.11097816 -6 38 C-8.97 38 -11.94 38 -15 38 C-14.38638843 31.57968525 -13.34155595 25.41596448 -11.9375 19.125 C-11.56883677 17.4615507 -11.20283273 15.79750921 -10.83984375 14.1328125 C-10.59802368 13.04830811 -10.59802368 13.04830811 -10.35131836 11.94189453 C-9.91098735 9.83689006 -9.91098735 9.83689006 -10 7 C-11.32 6.34 -12.64 5.68 -14 5 C-14 4.01 -14 3.02 -14 2 C-9.15758367 0.66416101 -5.06562383 -0.25328119 0 0 Z " fill="#2C3184" transform="translate(1451,582)"/>
<path d="M0 0 C0.33 0.66 0.66 1.32 1 2 C1.81984375 1.51466797 1.81984375 1.51466797 2.65625 1.01953125 C5.4228318 -0.18393183 7.49066525 -0.3000989 10.5 -0.3125 C11.4384375 -0.32925781 12.376875 -0.34601562 13.34375 -0.36328125 C16.48072375 0.06574604 17.82804274 0.70205914 20 3 C21.61704559 10.19394296 19.31110315 17.96250082 17.55859375 24.93359375 C17.03454854 27.81034542 16.99968625 29.30379008 18 32 C19.98 32 21.96 32 24 32 C23.67 33.65 23.34 35.3 23 37 C18.96961634 38.34346122 15.20161608 38.26676927 11 38 C9.24609375 36.74609375 9.24609375 36.74609375 8 35 C7.8203125 33.08203125 7.8203125 33.08203125 8.125 30.8125 C8.2384375 29.94238281 8.351875 29.07226562 8.46875 28.17578125 C9.24212094 23.55261526 10.11541238 18.94775084 11.07080078 14.35864258 C11.99153287 10.59604086 11.99153287 10.59604086 11 7 C9.14375 6.9690625 9.14375 6.9690625 7.25 6.9375 C6.55390625 6.92589844 5.8578125 6.91429687 5.140625 6.90234375 C2.96354099 7.00166328 1.10025805 7.44416248 -1 8 C-1.65421182 11.12330453 -2.29676159 14.24890602 -2.9375 17.375 C-3.11990234 18.24511719 -3.30230469 19.11523438 -3.49023438 20.01171875 C-4.71055591 26.00238809 -5.47860007 31.90785348 -6 38 C-8.97 38 -11.94 38 -15 38 C-14.24646775 31.11509485 -12.8770327 24.46976972 -11.37304688 17.71484375 C-11.19708984 16.90660156 -11.02113281 16.09835937 -10.83984375 15.265625 C-10.59802368 14.17942871 -10.59802368 14.17942871 -10.35131836 13.07128906 C-9.88851665 10.69286616 -9.88851665 10.69286616 -10 7 C-11.32 6.34 -12.64 5.68 -14 5 C-14 4.01 -14 3.02 -14 2 C-4.58997722 -0.29612756 -4.58997722 -0.29612756 0 0 Z " fill="#2C3184" transform="translate(1344,582)"/>
<path d="M0 0 C4.33069415 1.79201137 6.08123454 3.61345813 7.875 7.8125 C10.07551964 14.91179549 9.2390543 21.38598703 6 28 C3.01324279 32.21320341 -0.05101406 36.15748185 -5 38 C-10.18159365 38.7044258 -15.65303705 39.26047763 -20.37109375 36.7265625 C-22.7836916 34.67008616 -24.57862493 32.84275014 -26 30 C-27.23742336 13.40635554 -27.23742336 13.40635554 -22 7 C-15.07313484 -0.00400175 -9.8396017 -0.82595197 0 0 Z M-13.60546875 7.40234375 C-18.25268611 12.72646672 -18.60376567 19.46136897 -18.4140625 26.2734375 C-18.1497029 29.26161015 -18.1497029 29.26161015 -15.875 32.3125 C-13.11521109 34.24709039 -13.11521109 34.24709039 -9.9375 34.0625 C-5.26018863 32.37070653 -3.61555321 30.16271163 -1.3125 25.8125 C0.82028445 20.30968044 1.97085856 14.68477878 -0.25 9.0625 C-1.80900253 5.80434405 -1.80900253 5.80434405 -5 4 C-9.23934875 4 -10.531778 4.60878684 -13.60546875 7.40234375 Z " fill="#2C3184" transform="translate(1303,582)"/>
<path d="M0 0 C3.76031116 3.00824893 5.65931148 6.18833878 6.265625 10.8984375 C6.44842734 19.82349274 5.08129793 26.08827459 -0.76171875 32.96484375 C-4.80650553 36.6411436 -8.30511571 37.44289004 -13.73046875 37.640625 C-18.91723922 37.37648391 -22.31080291 36.81029084 -26.10546875 33.015625 C-29.89705899 27.833785 -29.88474767 22.18991184 -29.10546875 16.015625 C-27.18693064 9.63033662 -24.06697378 4.21776977 -18.66796875 0.203125 C-12.88299564 -1.72519937 -5.69663488 -2.66336176 0 0 Z M-16.10546875 6.015625 C-20.04955243 12.26263003 -21.96359557 18.57359415 -21.10546875 26.015625 C-19.70929325 28.93490104 -18.38343879 30.73765496 -16.10546875 33.015625 C-12.07955425 32.94107103 -9.86545613 32.7122801 -6.85546875 29.953125 C-2.79807633 23.142502 -1.11831612 16.99510879 -2.10546875 9.015625 C-3.00727211 5.92206842 -3.00727211 5.92206842 -5.10546875 4.015625 C-9.76021427 2.39658308 -12.39039198 2.78937412 -16.10546875 6.015625 Z " fill="#2C3184" transform="translate(2117.10546875,582.984375)"/>
<path d="M0 0 C4.14472574 2.16454375 6.52218716 4.56656147 8 9 C8.61153989 16.88986711 9.1597529 24.55404783 4 31 C-0.91207118 35.97771133 -4.16248305 38.15877532 -11.25 38.3125 C-15.33840799 38.26286149 -17.81361637 38.07712426 -21.625 36.5 C-25.58011708 32.33671887 -26.75993388 28.20060613 -27.375 22.5625 C-26.47171622 13.98130405 -23.48128641 7.81225039 -17 2 C-11.96423777 -1.28185359 -5.74785372 -0.81713109 0 0 Z M-13 6 C-16.9127902 11.57915368 -19.45798827 18.13017596 -19 25 C-17.95555915 29.14611369 -16.64563412 31.56957726 -13 34 C-8.74635762 34 -7.32337708 33.31602761 -4.25 30.3125 C0.42007745 23.93056137 1.06926741 16.72248685 0 9 C-2.00342211 5.65702801 -2.00342211 5.65702801 -5 4 C-9.39499586 3.99271212 -9.39499586 3.99271212 -13 6 Z " fill="#2C3184" transform="translate(1648,582)"/>
<path d="M0 0 C4.14472574 2.16454375 6.52218716 4.56656147 8 9 C8.61153989 16.88986711 9.1597529 24.55404783 4 31 C-0.91207118 35.97771133 -4.16248305 38.15877532 -11.25 38.3125 C-15.33840799 38.26286149 -17.81361637 38.07712426 -21.625 36.5 C-25.58011708 32.33671887 -26.75993388 28.20060613 -27.375 22.5625 C-26.47171622 13.98130405 -23.48128641 7.81225039 -17 2 C-11.96423777 -1.28185359 -5.74785372 -0.81713109 0 0 Z M-13 6 C-16.9127902 11.57915368 -19.45798827 18.13017596 -19 25 C-17.95555915 29.14611369 -16.64563412 31.56957726 -13 34 C-8.74635762 34 -7.32337708 33.31602761 -4.25 30.3125 C0.42007745 23.93056137 1.06926741 16.72248685 0 9 C-2.00342211 5.65702801 -2.00342211 5.65702801 -5 4 C-9.39499586 3.99271212 -9.39499586 3.99271212 -13 6 Z " fill="#2C3184" transform="translate(1410,582)"/>
<path d="M0 0 C4.14721427 2.1519207 6.52405467 4.57216402 8 9 C8.61153989 16.88986711 9.1597529 24.55404783 4 31 C-0.91207118 35.97771133 -4.16248305 38.15877532 -11.25 38.3125 C-15.38352087 38.26687615 -17.79190289 38.08969703 -21.625 36.4375 C-25.57057935 32.38808962 -27.13148927 28.27466372 -27.4375 22.6875 C-27.16779047 16.35472027 -25.35317652 10.56245111 -21.0234375 5.84765625 C-14.29026518 -0.13874605 -9.06900698 -1.16462872 0 0 Z M-14 7 C-18.08234304 12.60294733 -19.30719884 19.14946584 -19 26 C-18.06076739 28.88834809 -17.32452524 30.65229438 -15.25 32.875 C-12.98117213 34.21007941 -12.98117213 34.21007941 -10.0625 34.0625 C-5.05915016 32.32664393 -2.91055083 28.86446123 -0.6875 24.3125 C0.53176976 18.43783661 0.92692506 12.57479185 -1.125 6.875 C-2.94132026 4.78645416 -2.94132026 4.78645416 -5.875 4 C-9.74388488 4 -11.07521213 4.46005264 -14 7 Z " fill="#2C3184" transform="translate(1754,582)"/>
<path d="M0 0 C3.3125 2.0625 3.3125 2.0625 5 5 C5.65642395 9.08441566 5.48449486 11.14728904 3.4375 14.75 C-2.7248829 20.43835345 -8.31280467 20.2969911 -16.40234375 20.10546875 C-17.25957031 20.07066406 -18.11679688 20.03585937 -19 20 C-17.95081147 25.19044312 -17.95081147 25.19044312 -15.875 30 C-12.70667806 31.6897717 -9.45614283 31.51056655 -6 31 C-2.74941676 29.58376759 -2.74941676 29.58376759 0 28 C0.99 28 1.98 28 3 28 C3 29.65 3 31.3 3 33 C-4.4903865 37.30003669 -9.1374992 38.82253275 -18 38 C-21.81151433 36.26141451 -23.42797583 34.78176637 -25.875 31.4375 C-28.12184889 24.57212839 -27.95409514 18.28816857 -24.9375 11.6875 C-19.09351871 1.20172786 -11.6054149 -1.24959294 0 0 Z M-15 8 C-17.32530944 11.75569282 -17.32530944 11.75569282 -18 16 C-12.55885858 16.28143835 -8.53664747 16.43014809 -4 13 C-3.02126462 9.40614946 -3.02126462 9.40614946 -3 6 C-8.1419262 2.5720492 -10.46380403 4.40884486 -15 8 Z " fill="#2C3184" transform="translate(1846,582)"/>
<path d="M0 0 C3.375 1.9375 3.375 1.9375 5 5 C5.34509628 8.2324018 5.04358324 10.92114116 4 14 C0.85636323 17.50290954 -2.43974921 19.00503619 -7 20 C-11.00621722 20.15388799 -14.99320893 20.11670265 -19 20 C-18.74445946 21.46109063 -18.46999628 22.91888096 -18.1875 24.375 C-18.03667969 25.18710937 -17.88585937 25.99921875 -17.73046875 26.8359375 C-17.12455058 29.35820641 -17.12455058 29.35820641 -14 31 C-8.37947336 31.45326828 -5.7463542 31.16423613 -1 28 C0.32 28 1.64 28 3 28 C3 29.65 3 31.3 3 33 C-3.924458 37.20574456 -9.84913433 39.38410927 -18 38 C-22.58479833 35.78947223 -24.73226942 33.49023576 -27 29 C-28.15784781 21.53136009 -27.34995276 14.28460026 -23 8 C-15.81153345 0.45637205 -10.44104062 -1.0970191 0 0 Z M-12.6875 5.625 C-15.87390196 8.89752094 -18 11.33633173 -18 16 C-11.01035273 16.36127957 -11.01035273 16.36127957 -5 13 C-2.66608797 10.21885944 -2.66608797 10.21885944 -3.375 7.3125 C-3.58125 6.549375 -3.7875 5.78625 -4 5 C-7.72112946 3.96154527 -9.30934864 3.58239685 -12.6875 5.625 Z " fill="#2C3184" transform="translate(996,582)"/>
<path d="M0 0 C1.20785156 0.00644531 2.41570312 0.01289062 3.66015625 0.01953125 C6.9375 0.1875 6.9375 0.1875 10.9375 1.1875 C10.6075 4.4875 10.2775 7.7875 9.9375 11.1875 C8.2875 11.1875 6.6375 11.1875 4.9375 11.1875 C4.6075 9.5375 4.2775 7.8875 3.9375 6.1875 C2.33417209 6.10628076 0.72965974 6.04820866 -0.875 6 C-2.21498047 5.94779297 -2.21498047 5.94779297 -3.58203125 5.89453125 C-6.47897515 6.23668998 -7.28805028 6.94143573 -9.0625 9.1875 C-8.54342267 11.14923597 -8.54342267 11.14923597 -7.0625 13.1875 C-4.71457209 14.36434132 -2.50776544 15.33916318 -0.0625 16.25 C6.68078559 18.80242838 6.68078559 18.80242838 8.9375 22.1875 C9.40493705 26.31652729 9.18484843 28.67301526 7.375 32.4375 C3.42220689 36.89706146 0.33119012 38.01376443 -5.453125 38.43359375 C-15.92649247 38.61983564 -15.92649247 38.61983564 -21.0625 36.1875 C-21.0625 32.8875 -21.0625 29.5875 -21.0625 26.1875 C-19.4125 26.1875 -17.7625 26.1875 -16.0625 26.1875 C-14.375 28.625 -14.375 28.625 -13.0625 31.1875 C-9.61448589 32.91150705 -5.82360962 32.82124008 -2.0625 32.1875 C0.04111696 29.7651532 0.9375 28.40504366 0.9375 25.1875 C0.35742188 25.00574219 -0.22265625 24.82398438 -0.8203125 24.63671875 C-12.11970453 21.00077577 -12.11970453 21.00077577 -15.9375 17.4375 C-17.60736097 14.09777806 -17.57117676 11.8754065 -17.0625 8.1875 C-12.43224851 1.17597632 -8.14200551 -0.0957883 0 0 Z " fill="#2C3184" transform="translate(1036.0625,581.8125)"/>
<path d="M0 0 C-0.33 3.3 -0.66 6.6 -1 10 C4.445 10.495 4.445 10.495 10 11 C10 12.32 10 13.64 10 15 C5.71 15 1.42 15 -3 15 C-3.1546875 16.7325 -3.1546875 16.7325 -3.3125 18.5 C-3.89833022 23.95609042 -4.97014007 29.30625994 -6.0715332 34.67773438 C-6.42207349 36.44417007 -6.7163036 38.22160468 -7 40 C-5.96593327 41.25949049 -5.96593327 41.25949049 -3.71484375 41.09765625 C-2.79832031 41.08605469 -1.88179687 41.07445312 -0.9375 41.0625 C-0.01839844 41.05347656 0.90070313 41.04445313 1.84765625 41.03515625 C2.55792969 41.02355469 3.26820312 41.01195312 4 41 C3.67 42.65 3.34 44.3 3 46 C-2.0024362 48.05228152 -6.65544667 48.77941403 -12 48 C-14.625 46.5625 -14.625 46.5625 -16 44 C-15.95893123 37.59662495 -14.30416325 31.16233719 -12.9375 24.9375 C-12.75123047 24.07189453 -12.56496094 23.20628906 -12.37304688 22.31445312 C-11.91933733 20.20877549 -11.46023996 18.10425993 -11 16 C-12.65 15.67 -14.3 15.34 -16 15 C-16 13.68 -16 12.36 -16 11 C-15.071875 10.835 -14.14375 10.67 -13.1875 10.5 C-9.94909392 9.37297077 -9.94909392 9.37297077 -9.0390625 7.12109375 C-8.56187133 5.6869547 -8.12657324 4.23806123 -7.73828125 2.77734375 C-7.49464844 2.19082031 -7.25101563 1.60429688 -7 1 C-4 0 -4 0 0 0 Z " fill="#2C3184" transform="translate(1797,572)"/>
<path d="M0 0 C4.62 0 9.24 0 14 0 C13.39539872 6.17230728 12.46344166 12.13303534 11.15234375 18.19140625 C10.88811363 19.43747902 10.88811363 19.43747902 10.61854553 20.70872498 C10.06226143 23.32753531 9.49999222 25.94501688 8.9375 28.5625 C8.55624186 30.35212864 8.17537886 32.1418415 7.79492188 33.93164062 C6.86784137 38.2887464 5.93539589 42.64467217 5 47 C7.64 47 10.28 47 13 47 C12.505 49.475 12.505 49.475 12 52 C7.98575735 53.33808088 4.18573976 53.19932094 0 53 C-0.99 52.34 -1.98 51.68 -3 51 C-3.96992916 42.39187867 -1.44517106 34.01928494 0.5 25.6875 C1.00279661 23.50734884 1.50275081 21.32662498 1.9979248 19.14472961 C2.44513921 17.17805007 2.90104024 15.21335176 3.35742188 13.2487793 C4.12935445 9.89795609 4.12935445 9.89795609 4 6 C2.68 5.34 1.36 4.68 0 4 C0 2.68 0 1.36 0 0 Z " fill="#2C3184" transform="translate(1970,567)"/>
<path d="M0 0 C-0.14622803 0.7206665 -0.29245605 1.44133301 -0.44311523 2.18383789 C-1.1099689 5.47631213 -1.7737596 8.7693968 -2.4375 12.0625 C-2.66759766 13.19623047 -2.89769531 14.32996094 -3.13476562 15.49804688 C-4.23883893 20.98641129 -5.29855251 26.44485836 -6 32 C-3.36 32 -0.72 32 2 32 C2 33.32 2 34.64 2 36 C-2.47378703 38.30905137 -7.05482616 38.66065191 -12 38 C-14 36 -14 36 -14.375 32.0625 C-14.24977597 23.58483316 -11.89124341 15.2235316 -10 7 C-12.475 6.01 -12.475 6.01 -15 5 C-15 4.01 -15 3.02 -15 2 C-13.62705778 1.65828994 -12.25149882 1.32708883 -10.875 1 C-10.10929687 0.814375 -9.34359375 0.62875 -8.5546875 0.4375 C-5.66578951 -0.05723482 -2.92621119 -0.0281705 0 0 Z " fill="#2C3184" transform="translate(1507,582)"/>
<path d="M0 0 C-0.14622803 0.7206665 -0.29245605 1.44133301 -0.44311523 2.18383789 C-1.1099689 5.47631213 -1.7737596 8.7693968 -2.4375 12.0625 C-2.66759766 13.19623047 -2.89769531 14.32996094 -3.13476562 15.49804688 C-4.23883893 20.98641129 -5.29855251 26.44485836 -6 32 C-3.36 32 -0.72 32 2 32 C2 33.32 2 34.64 2 36 C-2.47378703 38.30905137 -7.05482616 38.66065191 -12 38 C-14 36 -14 36 -14.25 32.03515625 C-14.13027409 26.6998704 -13.12950177 21.63855037 -12 16.4375 C-11.80921875 15.52419922 -11.6184375 14.61089844 -11.421875 13.66992188 C-10.95588071 11.44479913 -10.48183025 9.22173724 -10 7 C-12.475 6.01 -12.475 6.01 -15 5 C-15 4.01 -15 3.02 -15 2 C-13.62705778 1.65828994 -12.25149882 1.32708883 -10.875 1 C-10.10929687 0.814375 -9.34359375 0.62875 -8.5546875 0.4375 C-5.66578951 -0.05723482 -2.92621119 -0.0281705 0 0 Z " fill="#2C3184" transform="translate(2016,582)"/>
<path d="M0 0 C3.5625 0.1875 3.5625 0.1875 5.5625 2.1875 C4.99431818 7.75568182 4.99431818 7.75568182 3.5625 9.1875 C0.125 9.4375 0.125 9.4375 -3.4375 9.1875 C-5.4375 6.1875 -5.4375 6.1875 -5.125 3.5625 C-4.0642205 -0.102011 -4.03994519 0.22036065 0 0 Z " fill="#2C3184" transform="translate(2013.4375,566.8125)"/>
<path d="M0 0 C3.5625 0.1875 3.5625 0.1875 5.5625 2.1875 C4.99431818 7.75568182 4.99431818 7.75568182 3.5625 9.1875 C0.125 9.4375 0.125 9.4375 -3.4375 9.1875 C-5.4375 6.1875 -5.4375 6.1875 -5.125 3.5625 C-4.0642205 -0.102011 -4.03994519 0.22036065 0 0 Z " fill="#2C3184" transform="translate(1504.4375,566.8125)"/>
</svg>
